<?xml version="1.0" standalone="no"?>
<!DOCTYPE svg PUBLIC "-//W3C//DTD SVG 20010904//EN"
 "http://www.w3.org/TR/2001/REC-SVG-20010904/DTD/svg10.dtd">
<svg version="1.0" xmlns="http://www.w3.org/2000/svg"
 width="4000.000000pt" height="2667.000000pt" viewBox="0 0 4000.000000 2667.000000"
 preserveAspectRatio="xMidYMid meet">

<g transform="translate(0.000000,2667.000000) scale(0.100000,-0.100000)"
fill="#000000" stroke="none">
<path d="M15659 23856 c-330 -231 -831 -474 -1198 -580 -299 -87 -716 -134
-1281 -143 -473 -8 -789 13 -1145 73 -496 85 -791 214 -1264 554 -189 136
-180 131 -226 119 -22 -6 -81 -36 -132 -66 -138 -82 -330 -165 -353 -153 -46
25 -113 -5 -236 -105 -40 -32 -131 -87 -214 -129 -208 -106 -875 -417 -1300
-606 -422 -188 -568 -260 -665 -332 -38 -28 -171 -153 -295 -277 -320 -321
-448 -485 -560 -716 -51 -105 -77 -147 -103 -167 -26 -21 -56 -68 -113 -180
-163 -325 -375 -708 -609 -1103 -137 -232 -453 -784 -827 -1445 -337 -594
-584 -983 -1049 -1647 -73 -103 -134 -196 -137 -207 -4 -13 27 -50 119 -140
227 -223 477 -419 841 -660 210 -139 533 -387 938 -720 41 -34 179 -147 305
-251 127 -104 270 -225 319 -270 115 -103 229 -240 250 -299 9 -25 24 -67 33
-93 24 -68 102 -147 169 -172 110 -42 245 -37 395 14 41 13 93 38 117 55 l43
30 -6 -63 c-19 -214 -38 -711 -45 -1212 -5 -319 -14 -647 -20 -730 -6 -82 -15
-568 -20 -1080 -9 -869 -17 -1202 -55 -2335 -8 -245 -22 -690 -30 -990 -45
-1628 -66 -2235 -95 -2785 -10 -203 -28 -581 -39 -840 -11 -258 -25 -562 -31
-673 -14 -261 -16 -258 155 -277 33 -4 155 -20 270 -35 254 -35 842 -105 1015
-121 78 -7 397 -12 855 -14 711 -2 929 -9 1295 -40 257 -23 668 -30 830 -16
74 7 212 25 305 41 310 53 483 64 970 65 485 0 485 0 930 -70 387 -61 546 -81
795 -101 262 -21 266 -21 1140 75 737 81 1094 116 1345 131 368 22 1067 87
1404 131 269 35 576 100 604 128 8 8 7 53 -2 163 -22 262 -25 724 -6 958 9
113 19 331 22 485 5 263 4 293 -22 495 -21 167 -29 287 -35 540 -7 240 -17
401 -39 615 -32 310 -111 1449 -135 1960 -9 171 -20 686 -26 1145 -6 470 -26
1314 -45 1930 -52 1633 -65 2125 -65 2444 0 286 17 826 27 836 14 14 238 -263
360 -445 33 -49 92 -149 131 -222 91 -168 139 -243 156 -243 13 0 53 28 91 64
11 10 96 84 190 165 93 80 215 189 270 241 125 118 329 290 344 290 6 0 57
-21 113 -46 57 -25 150 -67 208 -93 58 -26 154 -80 214 -120 92 -61 115 -72
145 -69 34 3 38 7 81 90 49 95 65 116 56 78 -5 -23 -23 -333 -61 -1085 -8
-159 -15 -459 -16 -665 0 -206 -4 -433 -9 -505 -5 -71 -13 -508 -19 -970 -11
-880 -19 -1224 -51 -2230 -11 -335 -29 -929 -40 -1320 -51 -1785 -70 -2340
-95 -2760 -8 -132 -21 -415 -30 -630 -16 -396 -21 -453 -50 -560 -17 -64 -34
-331 -35 -535 0 -138 5 -153 62 -188 18 -11 86 -36 151 -56 l118 -35 104 13
c58 8 122 12 142 10 21 -2 112 -9 203 -15 105 -8 169 -17 175 -24 7 -8 58 -15
150 -19 77 -3 226 -11 330 -18 216 -13 745 2 940 27 307 39 489 47 920 41 231
-3 535 -10 675 -15 255 -10 496 -5 940 20 113 6 394 12 625 13 416 1 421 1
570 -26 142 -26 304 -53 495 -83 190 -30 508 -47 765 -42 231 4 274 8 570 51
176 26 399 60 495 76 96 16 231 34 300 40 69 6 229 20 355 31 152 13 383 23
680 29 668 13 959 25 1300 51 278 21 417 37 455 52 14 6 52 9 85 8 64 -3 211
24 233 41 7 7 12 37 12 80 0 38 5 78 10 88 7 14 5 116 -6 332 -20 377 -20 574
1 813 9 99 19 304 22 455 6 278 2 329 -43 655 -3 22 -9 184 -14 360 -6 218
-17 400 -35 570 -37 357 -123 1589 -144 2065 -6 129 -15 609 -21 1065 -6 457
-22 1174 -35 1595 -57 1767 -75 2407 -75 2639 0 132 1 143 18 136 16 -7 121
-21 322 -45 318 -37 718 120 921 362 30 36 91 112 136 169 108 137 284 297
483 439 52 38 152 122 222 187 163 154 258 234 438 370 80 60 201 152 270 204
69 52 161 119 205 149 101 67 280 212 410 330 55 50 147 132 204 183 152 133
221 208 235 253 5 16 -29 71 -147 240 -84 120 -272 395 -418 609 -146 215
-338 496 -426 625 -88 129 -303 464 -478 745 -175 280 -379 604 -453 720 -252
391 -547 871 -669 1085 -11 20 -48 98 -83 175 -34 77 -98 208 -141 290 -43 83
-83 173 -90 200 -32 132 -102 239 -246 375 -274 260 -525 440 -798 575 -279
137 -1243 595 -1433 679 -103 46 -328 154 -500 240 -172 86 -322 156 -335 156
-13 0 -32 -6 -43 -14 -17 -13 -21 -12 -39 4 -34 31 -387 265 -436 288 -25 12
-56 22 -68 22 -13 0 -80 -38 -150 -84 -297 -196 -691 -388 -1020 -496 -173
-57 -335 -91 -561 -119 -1017 -125 -2058 -40 -2615 213 -155 71 -423 238 -636
397 -145 108 -135 108 -347 -14 -34 -20 -104 -55 -155 -78 -78 -36 -102 -42
-162 -43 -62 -1 -76 -5 -125 -37 -30 -20 -79 -57 -109 -82 -84 -72 -701 -370
-1501 -724 -434 -192 -578 -267 -692 -362 -131 -109 -434 -422 -557 -576 -132
-164 -178 -235 -250 -388 -44 -90 -68 -129 -94 -149 -27 -21 -57 -69 -121
-195 -47 -93 -101 -197 -120 -233 l-35 -65 -90 190 c-50 105 -98 204 -107 220
-74 134 -134 262 -143 306 -28 131 -110 244 -303 417 -239 215 -472 385 -664
484 -158 82 -1346 645 -1579 749 -66 29 -267 126 -447 216 -181 90 -336 163
-345 163 -10 0 -26 -7 -36 -14 -17 -13 -40 0 -231 129 -195 131 -301 195 -325
195 -5 0 -37 -20 -72 -44z m10616 -3273 c3 -27 8 -56 10 -66 5 -24 -1 -26
-162 -46 l-138 -17 2 -48 c1 -26 3 -49 5 -51 2 -2 62 5 133 15 72 10 133 15
136 11 4 -3 10 -33 14 -67 l7 -60 -137 -18 -136 -19 6 -51 c4 -28 8 -52 10
-54 1 -2 73 7 159 19 86 12 159 20 161 17 2 -2 7 -33 11 -69 l6 -65 -242 -33
c-133 -18 -244 -30 -247 -27 -13 12 -89 608 -79 612 13 4 422 61 453 63 19 1
23 -6 28 -46z m1070 11 c110 -15 201 -28 203 -29 2 -1 -11 -105 -27 -231 -44
-331 -51 -377 -56 -382 -6 -6 -478 59 -486 67 -7 6 6 119 15 128 2 3 73 -4
157 -16 165 -23 169 -22 169 31 0 14 2 33 6 41 4 11 -21 18 -128 32 -73 9
-136 19 -139 21 -5 3 9 124 15 131 0 1 60 -7 131 -17 72 -10 133 -15 137 -11
3 3 8 26 10 51 2 34 -1 45 -12 47 -8 1 -77 9 -153 19 l-138 16 7 62 c4 33 9
65 12 70 2 4 21 6 41 3 20 -4 126 -18 236 -33z m-1755 -153 c73 -44 119 -151
100 -235 -4 -20 -21 -55 -36 -77 -15 -22 -25 -41 -23 -43 101 -80 168 -140
162 -146 -7 -6 -153 -50 -166 -50 -3 0 -38 27 -77 60 -39 33 -77 60 -83 60
-33 0 -88 -23 -84 -34 16 -40 39 -137 34 -142 -3 -3 -40 -16 -82 -29 -58 -18
-77 -21 -81 -11 -14 38 -172 581 -170 584 8 7 274 85 316 92 69 12 140 1 190
-29z m2505 -14 c77 -22 144 -44 149 -48 8 -7 -33 -159 -144 -534 -20 -68 -14
-66 -123 -34 -45 13 -67 25 -64 33 3 6 13 40 23 75 19 70 17 75 -43 87 -29 5
-40 -1 -107 -56 l-75 -61 -78 21 c-43 12 -84 25 -91 29 -8 5 19 32 77 79 l90
73 -32 45 c-28 40 -32 53 -32 112 1 148 106 240 260 225 28 -3 113 -23 190
-46z m-3106 -302 c111 -237 119 -283 63 -388 -50 -94 -171 -162 -287 -162 -82
1 -134 23 -184 80 -29 33 -128 221 -186 351 l-24 54 76 35 c42 19 79 35 83 35
4 0 40 -72 80 -159 79 -174 114 -226 160 -236 70 -15 140 37 140 105 0 45 -8
66 -101 252 -38 78 -67 144 -62 146 4 1 40 18 78 36 39 18 73 30 77 27 3 -3
42 -83 87 -176z m3600 109 c2 -2 -30 -75 -72 -161 -91 -191 -101 -224 -82
-269 26 -63 106 -90 163 -55 25 16 47 51 101 163 38 79 76 160 85 181 8 20 20
37 26 37 18 0 150 -70 150 -79 0 -18 -168 -351 -194 -385 -73 -96 -201 -119
-326 -60 -153 72 -216 184 -179 319 6 22 48 118 94 213 l84 173 73 -37 c40
-20 75 -38 77 -40z m-4277 -293 l36 -60 -78 -51 -78 -51 96 -147 c52 -81 110
-168 129 -194 18 -26 33 -52 33 -58 0 -9 -105 -85 -133 -95 -7 -3 -21 9 -31
27 -11 18 -70 108 -133 200 l-113 167 -72 -50 c-39 -27 -75 -49 -80 -49 -13 0
-82 110 -74 118 10 9 450 300 456 301 3 0 21 -26 42 -58z m4988 -95 c124 -82
226 -150 228 -151 6 -5 -70 -115 -79 -115 -5 0 -41 22 -81 49 l-72 49 -70
-101 c-38 -56 -98 -146 -133 -200 -35 -54 -67 -97 -71 -95 -16 8 -142 91 -142
94 0 2 59 91 131 198 72 108 128 200 125 205 -3 5 -38 30 -77 56 l-70 46 17
27 c10 15 27 42 38 59 12 18 23 32 26 30 3 -1 106 -69 230 -151z m-2237 -32
c468 -51 971 -199 1382 -406 180 -90 246 -129 435 -254 397 -262 786 -653
1065 -1070 l75 -112 0 -3216 0 -3216 -3365 0 -3365 0 0 3211 0 3211 56 86
c259 398 724 857 1164 1147 555 366 1102 561 1770 628 19 2 171 5 338 5 217 2
343 -2 445 -14z m-3427 -386 c78 -97 247 -298 250 -298 1 0 51 41 110 90 60
50 111 90 115 90 9 0 93 -100 88 -104 -44 -40 -354 -296 -359 -296 -8 0 -389
456 -393 470 -1 6 116 115 129 120 1 0 28 -33 60 -72z m6189 20 c35 -29 64
-57 64 -63 1 -11 -376 -468 -389 -473 -11 -4 -361 290 -358 300 6 16 73 97 81
98 9 0 138 -102 195 -154 19 -18 35 -26 41 -20 30 33 232 278 261 317 19 25
36 47 38 47 2 0 32 -24 67 -52z m-6370 -318 c149 -136 187 -185 205 -261 38
-157 -128 -353 -300 -353 -98 0 -139 27 -349 226 l-105 99 59 59 c33 33 62 60
65 60 3 0 69 -58 146 -128 147 -134 186 -159 230 -148 34 9 81 56 90 90 15 60
9 68 -205 269 l-104 98 59 60 c32 32 62 58 66 57 4 -2 68 -59 143 -128z m6638
72 l58 -59 -83 -79 c-46 -44 -109 -105 -141 -135 -96 -88 -111 -141 -56 -203
38 -44 83 -55 129 -31 17 9 88 69 157 133 69 64 132 121 141 126 12 7 29 -5
72 -54 l57 -62 -141 -134 c-165 -157 -220 -189 -311 -188 -77 1 -144 34 -208
103 -94 100 -115 204 -65 312 21 46 52 80 174 192 82 75 151 137 154 137 3 0
32 -26 63 -58z m-7184 -603 c6 -38 9 -74 6 -78 -2 -5 -18 -11 -34 -14 -71 -15
-140 -118 -128 -193 8 -47 29 -78 78 -114 85 -61 185 -45 244 40 26 38 30 52
29 105 l-2 62 59 17 c82 22 87 21 95 -20 25 -134 -64 -305 -198 -379 -48 -27
-62 -30 -143 -30 -78 0 -97 4 -140 27 -65 34 -128 100 -157 163 -35 78 -32
180 8 266 51 107 123 175 217 205 23 7 45 13 48 13 3 1 11 -31 18 -70z m7619
45 c79 -32 157 -119 194 -217 82 -216 -86 -447 -317 -435 -127 6 -228 80 -291
212 -29 60 -34 81 -34 141 0 99 3 101 88 80 l70 -17 -5 -52 c-8 -78 27 -140
99 -177 50 -26 84 -24 146 7 85 42 121 111 100 192 -14 56 -68 113 -124 130
l-41 12 9 52 c17 101 16 99 46 92 15 -4 42 -13 60 -20z m-14528 -886 c19 -6
72 -28 117 -50 118 -55 210 -50 281 15 15 14 22 16 22 7 0 -8 -21 -34 -48 -60
-49 -47 -89 -64 -179 -76 -57 -7 -63 -24 -9 -24 22 0 53 -13 92 -40 73 -50
111 -52 135 -9 21 40 -28 80 -50 42 -11 -21 -26 -11 -18 12 9 21 50 19 71 -4
39 -43 -16 -154 -76 -153 -33 0 -107 26 -186 66 -93 48 -121 69 -143 105 -10
17 -30 36 -43 42 -16 8 -22 17 -19 30 7 24 -14 49 -40 49 -26 0 -57 -28 -57
-50 0 -13 -6 -16 -27 -12 -36 6 -43 19 -31 52 24 70 99 90 208 58z m-84 -86
c1 -7 0 -8 -3 -2 -6 14 -23 3 -23 -16 0 -8 20 -23 44 -33 42 -19 56 -36 56
-70 0 -10 11 -23 25 -29 14 -6 25 -16 25 -23 0 -6 -12 -1 -26 10 -16 13 -35
19 -48 15 -14 -3 -28 2 -40 15 -18 20 -15 41 6 41 7 0 7 -4 -1 -14 -14 -17 11
-41 34 -32 36 13 10 59 -48 84 -30 13 -42 34 -33 58 7 17 28 15 32 -4z m-196
-143 c-20 -17 -46 -29 -62 -29 -28 0 -61 -24 -70 -51 -3 -8 -9 -11 -13 -6 -18
16 32 62 86 80 30 10 60 25 68 32 8 8 17 12 20 9 3 -3 -10 -19 -29 -35z m7438
-65 l3 -71 -166 -136 -166 -137 163 -2 163 -3 0 -85 0 -85 -310 0 -310 0 -3
71 -3 70 113 95 c62 51 137 113 167 137 l54 42 -166 0 -167 0 0 90 0 90 313
-2 312 -3 3 -71z m7642 -14 l0 -90 -162 0 c-147 -1 -161 -2 -143 -16 11 -8 84
-67 162 -132 l142 -117 0 -77 1 -78 -310 0 -310 0 0 90 0 90 160 2 161 3 -161
132 -160 133 0 75 0 75 310 0 310 0 0 -90z m-14790 45 c7 -8 10 -22 6 -30 -6
-17 9 -21 17 -5 3 6 4 5 3 -2 -6 -28 -80 -29 -90 -1 -15 39 37 70 64 38z m-88
-425 c14 0 19 -6 16 -22 -3 -20 -8 -23 -40 -20 -51 5 -48 -10 5 -28 39 -14 42
-18 42 -50 0 -31 -4 -36 -34 -46 -46 -15 -96 -4 -96 21 0 15 5 19 20 16 69
-14 85 8 23 29 -38 13 -43 19 -46 48 -3 28 1 34 30 47 18 8 39 12 46 10 8 -3
23 -5 34 -5z m-359 -12 c54 -28 63 -89 21 -132 -23 -23 -35 -26 -90 -26 l-64
0 0 85 0 85 56 0 c30 0 65 -5 77 -12z m167 -73 c0 -84 0 -85 -25 -85 -25 0
-25 1 -25 85 0 84 0 85 25 85 25 0 25 -1 25 -85z m430 65 c0 -15 -7 -20 -25
-20 -24 0 -25 -2 -25 -65 0 -63 -1 -65 -25 -65 -24 0 -25 2 -25 65 l0 65 -30
0 c-23 0 -30 4 -30 20 0 18 7 20 80 20 73 0 80 -2 80 -20z m198 4 c26 -18 29
-60 6 -85 -14 -16 -14 -20 1 -43 17 -26 17 -26 -9 -26 -15 0 -31 8 -38 20 -7
11 -20 20 -29 20 -12 0 -16 -6 -12 -20 5 -17 0 -20 -26 -20 l-31 0 0 85 0 85
58 0 c36 0 66 -6 80 -16z m152 -70 l0 -85 -26 3 c-26 3 -26 4 -26 81 1 42 1
79 2 82 0 3 11 5 25 5 25 0 25 -1 25 -86z m130 54 l0 -32 33 32 c18 18 43 32
55 32 22 0 22 -1 -9 -40 l-32 -39 37 -46 37 -45 -30 0 c-22 0 -36 8 -52 30
-25 33 -39 31 -39 -6 0 -19 -5 -24 -25 -24 -25 0 -25 1 -25 85 0 84 0 85 25
85 21 0 25 -5 25 -32z m14160 -504 l0 -90 -132 -59 c-73 -32 -194 -85 -268
-118 -74 -32 -154 -68 -178 -78 l-43 -19 3 92 3 92 55 22 55 22 0 133 0 133
-55 22 -55 22 -3 95 -3 95 310 -136 310 -137 1 -91z m-7640 267 l0 -89 -60
-24 -61 -23 3 -134 3 -135 55 -22 55 -22 0 -88 c0 -54 -4 -88 -10 -87 -5 1
-102 43 -215 93 -113 50 -248 110 -300 133 l-95 42 -3 88 -3 88 41 17 c23 9
159 70 303 134 144 65 268 118 275 118 9 0 12 -24 12 -89z m0 -766 l0 -85
-315 0 -315 0 0 85 0 85 315 0 315 0 0 -85z m7640 0 l0 -85 -310 0 -310 0 0
85 0 85 310 0 310 0 0 -85z m-7787 -176 c52 -14 100 -60 128 -121 34 -74 34
-223 1 -320 -31 -91 -37 -94 -108 -62 -33 15 -60 28 -62 30 -2 1 3 13 11 26
24 37 47 127 47 183 0 56 -20 95 -49 95 -29 0 -42 -23 -67 -126 -39 -157 -80
-212 -167 -221 -86 -10 -151 27 -195 110 -24 48 -27 61 -26 162 0 91 4 120 23
168 18 46 26 57 39 52 10 -4 40 -16 69 -27 l51 -20 -20 -47 c-11 -25 -23 -75
-25 -111 -4 -56 -2 -69 17 -92 42 -54 68 -28 95 91 30 138 75 211 141 231 40
12 53 12 97 -1z m7424 -8 c57 -26 89 -78 117 -195 22 -87 47 -146 62 -146 62
0 79 143 29 243 -18 36 -18 34 -2 40 6 3 36 14 65 26 l53 21 19 -43 c31 -70
44 -174 32 -247 -23 -131 -82 -198 -182 -208 -96 -9 -156 42 -190 161 -46 161
-54 182 -77 185 -56 8 -71 -110 -29 -233 14 -38 24 -71 23 -71 -10 -8 -108
-54 -115 -54 -12 0 -50 86 -62 140 -14 64 -11 198 4 243 23 63 59 106 110 132
59 30 87 31 143 6z m-7279 -828 l-3 -248 -312 -3 -313 -2 0 245 0 245 70 0 70
0 0 -155 0 -155 50 0 49 0 3 138 3 137 65 0 65 0 3 -137 3 -138 54 0 55 0 0
160 0 160 70 0 70 0 -2 -247z m7162 87 l0 -160 55 0 55 0 0 140 0 140 65 0 65
0 0 -140 0 -140 53 0 52 0 -3 155 -3 155 71 0 70 0 0 -245 0 -245 -310 0 -310
0 0 250 0 250 70 0 70 0 0 -160z m-7162 -532 l-3 -73 -163 -135 -162 -135 165
-3 165 -2 0 -85 0 -85 -315 0 -315 0 1 73 0 72 142 117 c78 64 153 126 167
137 l25 20 -167 1 -168 0 0 85 0 85 315 0 316 0 -3 -72z m7642 -13 l0 -85
-161 -2 -160 -3 160 -134 161 -134 0 -73 0 -74 -310 0 -310 0 0 85 0 85 160 0
c88 0 160 3 159 8 0 6 -92 84 -251 211 l-68 54 0 73 0 74 310 0 310 0 0 -85z
m-7814 -630 c64 -31 118 -89 153 -164 22 -48 26 -69 26 -151 0 -77 -5 -104
-23 -144 -36 -79 -85 -131 -158 -167 -211 -104 -446 41 -462 285 -11 181 86
322 253 367 52 14 155 1 211 -26z m7638 4 c170 -79 241 -298 156 -476 -66
-138 -198 -208 -344 -182 -154 27 -255 148 -264 315 -7 134 33 229 130 307 86
69 221 84 322 36z m-7628 -762 c81 -41 136 -129 154 -244 6 -37 9 -133 8 -213
l-3 -145 -314 -3 -313 -2 4 197 c5 220 13 252 73 335 80 110 257 143 391 75z
m7614 16 c60 -22 133 -92 161 -156 22 -48 24 -67 27 -259 l3 -208 -311 0 -312
0 4 203 c3 193 4 204 29 257 14 30 38 70 53 88 76 89 219 120 346 75z m-7452
-815 l-3 -73 -163 -135 -162 -135 165 -3 165 -2 0 -85 0 -85 -315 0 -315 0 0
73 1 72 164 135 165 135 -165 3 -165 2 0 85 0 85 315 0 316 0 -3 -72z m7642
-13 l0 -85 -162 0 -163 -1 31 -27 c17 -15 90 -76 163 -136 l131 -109 0 -74 0
-73 -310 0 -310 0 0 85 0 85 160 0 c88 0 160 3 159 8 0 6 -92 84 -251 211
l-68 54 0 73 0 74 310 0 310 0 0 -85z m-7640 -720 l0 -85 -315 0 -315 0 0 85
0 85 315 0 315 0 0 -85z m7640 0 l0 -85 -310 0 -310 0 0 85 0 85 310 0 310 0
0 -85z m-7462 -1017 c-3 -7 -11 -13 -18 -13 -7 0 -15 6 -17 13 -3 7 4 12 17
12 13 0 20 -5 18 -12z m608 0 c4 -6 2 -14 -5 -16 -11 -4 -11 -6 0 -13 11 -6
11 -11 1 -21 -6 -6 -12 -25 -12 -41 0 -21 -4 -28 -17 -25 -12 2 -17 13 -18 33
0 43 -29 40 -33 -3 -3 -25 -8 -32 -20 -30 -13 2 -17 14 -18 46 l0 42 38 0 c26
0 38 4 38 14 0 13 13 23 32 25 4 1 10 -4 14 -11z m375 -3 c-1 -15 -24 -12 -29
3 -3 9 2 13 12 10 10 -1 17 -7 17 -13z m589 7 c0 -14 -11 -21 -26 -15 -8 3
-11 9 -8 14 7 11 34 12 34 1z m536 -18 c-13 -9 -14 -13 -4 -17 10 -4 11 -7 1
-18 -7 -7 -13 -26 -13 -41 0 -18 -5 -28 -15 -28 -10 0 -15 10 -15 28 0 15 -5
33 -10 38 -16 16 34 66 56 57 16 -6 16 -7 0 -19z m549 16 c3 -6 -1 -13 -10
-16 -14 -6 -14 -8 2 -19 17 -13 17 -14 1 -20 -12 -5 -18 -18 -18 -36 0 -19 -5
-29 -15 -29 -10 0 -15 10 -15 29 0 16 -3 36 -6 44 -3 9 4 25 15 36 23 23 37
26 46 11z m493 -2 c-3 -7 -11 -13 -18 -13 -7 0 -15 6 -17 13 -3 7 4 12 17 12
13 0 20 -5 18 -12z m-3877 -35 l12 -38 12 35 c16 46 43 52 51 11 7 -36 24 -52
24 -24 0 23 26 61 35 52 3 -4 -1 -32 -10 -63 -12 -42 -21 -56 -35 -56 -12 0
-21 10 -25 30 -4 17 -10 30 -15 30 -4 0 -10 -13 -13 -30 -11 -51 -40 -39 -60
23 -21 65 -21 67 -3 67 8 0 20 -17 27 -37z m2566 23 c-4 -11 3 -16 26 -18 30
-3 32 -6 35 -45 2 -34 0 -43 -12 -43 -11 0 -16 9 -16 29 0 29 -15 49 -27 37
-3 -3 -6 -18 -7 -33 -1 -18 -7 -28 -16 -28 -11 0 -16 14 -18 58 -3 53 -1 57
19 57 14 0 19 -5 16 -14z m1543 -46 c0 -47 -3 -60 -15 -60 -12 0 -15 13 -15
60 0 47 3 60 15 60 12 0 15 -13 15 -60z m150 2 l0 -59 -35 -1 c-27 -1 -39 4
-51 23 -20 31 -4 65 31 65 16 0 25 6 25 15 0 8 7 15 15 15 12 0 15 -13 15 -58z
m-2058 28 c19 -17 19 -20 5 -26 -21 -8 -22 -30 -2 -38 21 -8 19 -26 -3 -26
-25 0 -42 19 -42 48 0 38 -34 24 -38 -16 -4 -42 -32 -44 -32 -3 0 16 -3 36 -6
45 -5 13 2 16 35 16 23 0 41 5 41 10 0 16 19 12 42 -10z m304 5 c12 -12 12
-18 2 -36 -10 -17 -10 -23 0 -26 22 -8 14 -35 -10 -31 -16 2 -24 11 -26 28 -2
14 -8 30 -14 37 -6 8 -5 17 4 27 17 19 26 20 44 1z m1104 5 c0 -5 12 -10 26
-10 17 0 28 -6 31 -20 3 -11 9 -20 13 -20 4 0 10 9 13 20 4 17 14 20 66 20 55
0 63 -3 70 -22 11 -29 -8 -62 -38 -66 -11 -2 -21 -10 -21 -18 0 -8 -9 -14 -21
-14 -20 0 -21 4 -17 55 3 30 2 55 -1 55 -3 0 -15 -24 -26 -53 -17 -44 -24 -52
-49 -55 -20 -3 -27 0 -23 10 2 7 10 12 16 11 14 -4 14 6 0 46 -6 17 -15 31
-20 31 -15 0 -23 -30 -10 -43 18 -18 13 -29 -11 -25 -16 2 -24 11 -26 28 -2
14 -8 30 -14 37 -6 8 -5 17 4 27 15 17 38 21 38 6z m-2662 -58 l3 -41 -43 2
c-53 2 -64 28 -21 51 26 14 26 15 6 16 -27 0 -31 17 -5 22 37 9 57 -7 60 -50z
m152 26 c0 -6 8 -4 18 5 25 23 69 22 82 -2 15 -29 13 -31 -22 -31 -17 0 -28
-3 -24 -7 4 -4 14 -8 22 -8 7 0 14 -4 14 -10 1 -17 -47 -17 -64 0 -15 15 -17
15 -32 0 -10 -9 -25 -14 -35 -12 -14 4 -19 0 -19 -14 0 -10 -7 -19 -15 -19
-12 0 -15 13 -15 59 0 58 1 60 28 63 31 4 62 -8 62 -24z m1622 8 c16 -23 7
-36 -23 -36 -16 0 -28 -4 -25 -9 3 -5 16 -7 27 -4 16 4 20 2 17 -8 -6 -19 -58
-18 -71 2 -14 22 -1 67 21 71 21 5 45 -2 54 -16z m-2504 2 c7 -7 12 -27 12
-44 0 -32 -1 -33 -42 -31 -35 2 -44 6 -46 22 -2 15 5 24 25 32 l28 11 -28 1
c-16 1 -26 5 -22 11 9 14 58 13 73 -2z m53 -10 l12 -23 10 23 c8 18 18 22 57
22 54 0 70 -12 70 -56 0 -32 -1 -33 -42 -31 -35 2 -44 6 -46 22 -2 15 5 24 25
32 l28 11 -30 1 c-27 0 -32 -5 -52 -49 -18 -42 -26 -50 -48 -50 -28 0 -31 25
-4 25 16 1 16 7 -5 58 -14 32 -14 37 -1 37 8 0 20 -10 26 -22z m249 7 c0 -8 4
-15 9 -15 5 0 11 7 15 15 4 10 20 15 51 15 l45 0 0 -43 c0 -59 -17 -79 -60
-75 -36 3 -45 23 -11 23 11 0 23 3 27 8 4 4 -5 7 -20 7 -18 0 -29 7 -36 23 -8
21 -9 21 -9 -6 -1 -43 -35 -33 -39 11 -4 42 -26 37 -30 -6 -5 -52 -32 -41 -32
13 l0 45 45 0 c33 0 45 -4 45 -15z m211 3 c0 -10 2 -10 6 0 6 14 73 17 73 2 0
-5 -12 -10 -27 -10 l-28 -1 33 -14 c34 -15 39 -24 20 -43 -18 -18 -68 -15 -68
4 0 11 6 14 20 9 11 -4 20 -2 20 4 0 6 -9 11 -19 11 -11 0 -22 6 -24 13 -3 6
-6 -3 -6 -21 -1 -26 -5 -33 -18 -30 -13 2 -19 15 -21 46 -3 37 -1 42 17 42 12
0 21 -6 22 -12z m698 -10 c17 -45 -39 -87 -75 -58 -17 15 -18 52 -2 68 21 21
68 15 77 -10z m235 5 c3 -8 6 -28 6 -45 0 -43 -34 -35 -38 10 -2 17 -7 32 -12
32 -5 0 -10 -15 -12 -32 -2 -22 -9 -34 -20 -36 -15 -3 -18 4 -18 32 0 33 -19
53 -21 24 -1 -7 -2 -22 -3 -33 0 -11 -9 -21 -18 -23 -15 -3 -18 4 -18 32 0 27
-3 34 -15 30 -9 -4 -15 -19 -15 -36 0 -22 -4 -29 -16 -26 -11 2 -17 16 -18 46
l-2 42 107 -1 c86 0 109 -4 113 -16z m46 -28 c0 -33 -4 -45 -15 -45 -11 0 -15
12 -15 45 0 33 4 45 15 45 11 0 15 -12 15 -45z m108 -2 c2 -33 0 -43 -12 -43
-9 0 -16 12 -18 33 -2 17 -7 32 -13 32 -5 0 -11 -15 -13 -32 -2 -21 -9 -33
-18 -33 -10 0 -14 13 -14 46 l0 45 43 -3 c42 -3 42 -3 45 -45z m112 -1 c0 -26
-5 -53 -12 -60 -18 -18 -78 -16 -78 3 0 11 7 14 24 9 13 -3 27 -1 30 5 5 7 -2
11 -16 11 -28 0 -48 17 -48 40 0 26 22 40 62 40 l38 0 0 -48z m138 1 c3 -41 3
-42 -30 -41 -62 1 -76 30 -25 52 l32 14 -27 1 c-16 1 -28 6 -28 12 0 6 16 9
38 7 36 -3 37 -4 40 -45z m232 2 c0 -33 -4 -45 -15 -45 -11 0 -15 12 -15 45 0
33 4 45 15 45 11 0 15 -12 15 -45z m104 29 c3 -9 6 -29 6 -46 0 -43 -34 -35
-38 10 -4 42 -26 37 -30 -6 -5 -52 -32 -41 -32 13 l0 45 44 0 c31 0 46 -5 50
-16z m524 4 c38 -38 -12 -93 -63 -70 -46 21 -27 82 25 82 14 0 31 -5 38 -12z
m240 -35 c2 -33 0 -43 -12 -43 -9 0 -16 12 -18 33 -4 42 -22 41 -26 -1 -3 -25
-8 -32 -20 -30 -10 2 -16 13 -17 28 0 38 -20 40 -23 2 -4 -45 -36 -41 -40 5
-4 41 -32 34 -32 -8 0 -19 -5 -29 -15 -29 -11 0 -15 12 -15 45 l0 46 108 -3
107 -3 3 -42z m142 32 c18 -22 4 -64 -24 -71 -50 -12 -88 40 -54 74 17 17 63
15 78 -3z m198 3 c7 -7 12 -27 12 -44 0 -32 -1 -33 -42 -31 -35 2 -44 6 -46
22 -2 15 5 24 25 32 l28 11 -27 1 c-16 1 -28 6 -28 11 0 14 64 12 78 -2z m373
-10 l0 -23 10 23 c7 19 15 23 41 20 17 -2 34 -9 36 -17 3 -10 -2 -12 -22 -7
-22 5 -26 3 -26 -14 0 -15 6 -19 28 -18 15 1 29 5 32 8 3 3 16 11 30 17 24 11
24 12 3 12 -37 1 -37 21 0 21 41 0 60 -19 55 -57 -3 -23 -8 -28 -37 -30 -19
-2 -40 2 -47 7 -8 8 -14 8 -19 0 -11 -18 -53 -11 -69 12 l-16 22 0 -23 c0 -15
-5 -21 -16 -19 -11 2 -17 16 -18 46 -2 35 1 42 16 42 12 0 18 -8 19 -22z m537
-24 c3 -40 2 -41 -30 -42 -32 -1 -58 12 -58 29 0 5 15 15 33 23 32 14 32 14 5
15 -43 2 -58 -9 -58 -40 0 -19 -5 -29 -15 -29 -11 0 -15 12 -15 45 l0 46 68
-3 67 -3 3 -41z m170 -1 c2 -33 0 -43 -12 -43 -9 0 -16 12 -18 33 -2 17 -7 32
-13 32 -5 0 -11 -15 -13 -32 -2 -20 -9 -33 -17 -33 -8 0 -15 13 -17 33 -2 17
-7 32 -13 32 -5 0 -11 -15 -13 -32 -5 -53 -32 -43 -32 12 l0 45 73 -2 72 -3 3
-42z m90 35 c7 -7 12 -27 12 -44 0 -32 -1 -33 -42 -31 -35 2 -44 6 -46 22 -2
15 5 24 25 32 l28 11 -27 1 c-16 1 -28 6 -28 11 0 14 64 12 78 -2z m1711 -41
c-18 -12 -44 -38 -56 -56 -13 -19 -23 -30 -23 -25 0 28 76 104 104 104 5 0 -6
-10 -25 -23z m171 -13 c22 -20 40 -41 40 -47 0 -5 -10 3 -22 18 -12 15 -35 36
-52 46 -17 10 -25 19 -19 19 7 0 31 -16 53 -36z m-1825 -4 c0 -8 -8 -16 -17
-18 -13 -2 -18 3 -18 18 0 15 5 20 18 18 9 -2 17 -10 17 -18z m1735 -60 c0
-20 -2 -22 -10 -10 -5 8 -10 26 -10 40 0 20 2 22 10 10 5 -8 10 -26 10 -40z
m-5264 -31 c10 -17 -13 -36 -27 -22 -12 12 -4 33 11 33 5 0 12 -5 16 -11z
m670 0 c10 -17 -13 -36 -27 -22 -12 12 -4 33 11 33 5 0 12 -5 16 -11z m1659
-7 c0 -18 -20 -15 -23 4 -3 10 1 15 10 12 7 -3 13 -10 13 -16z m1340 -12 c-5
-8 -11 -8 -17 -2 -6 6 -7 16 -3 22 5 8 11 8 17 2 6 -6 7 -16 3 -22z m-4783 -4
c-2 -12 5 -16 26 -16 33 0 42 -14 42 -62 0 -43 -34 -35 -38 10 -2 17 -7 32
-13 32 -9 0 -11 -7 -13 -45 -1 -11 -9 -21 -18 -23 -15 -3 -18 4 -18 42 0 39
-3 46 -20 46 -17 0 -20 -7 -20 -45 0 -33 -4 -45 -15 -45 -11 0 -15 12 -15 45
0 38 -3 45 -20 45 -11 0 -20 7 -20 15 0 10 16 15 63 17 79 5 83 4 79 -16z
m743 14 c3 -6 -1 -13 -10 -16 -13 -5 -14 -8 -3 -15 10 -6 10 -11 0 -21 -6 -6
-12 -25 -12 -40 0 -18 -5 -28 -15 -28 -10 0 -15 10 -15 28 0 34 -7 43 -26 35
-8 -3 -14 -18 -14 -34 0 -19 -5 -29 -15 -29 -11 0 -15 12 -15 45 0 44 1 45 33
45 21 0 36 7 45 20 13 21 37 26 47 10z m1288 -56 c-1 -46 -4 -60 -17 -62 -13
-3 -16 7 -16 56 0 32 3 62 7 66 17 17 27 -5 26 -60z m217 2 l0 -64 -35 0 c-37
0 -65 19 -65 44 0 21 38 54 55 48 10 -4 15 0 15 15 0 12 6 21 15 21 12 0 15
-14 15 -64z m660 -1 c0 -64 0 -65 -27 -64 -46 2 -62 9 -68 29 -9 29 12 60 40
60 18 0 25 5 25 20 0 11 7 20 15 20 12 0 15 -14 15 -65z m490 0 c0 -51 -3 -65
-15 -65 -12 0 -15 14 -15 65 0 51 3 65 15 65 12 0 15 -14 15 -65z m2925 45 c8
-13 -35 -13 -55 0 -11 7 -7 10 17 10 17 0 35 -4 38 -10z m140 0 c-28 -12 -57
-12 -50 0 3 6 21 10 38 9 27 0 29 -2 12 -9z m-4858 -15 c12 -12 12 -19 3 -30
-7 -8 -10 -20 -8 -27 5 -14 68 -21 68 -7 0 5 -9 9 -19 9 -24 0 -33 13 -25 34
7 18 74 23 74 6 0 -5 -12 -10 -27 -10 l-28 -1 33 -14 c57 -25 33 -55 -44 -54
-57 1 -74 12 -74 45 0 26 -1 27 -24 18 -10 -4 -16 -18 -16 -35 0 -19 -5 -29
-15 -29 -11 0 -15 12 -15 45 0 45 0 45 35 45 19 0 35 5 35 10 0 15 30 12 47
-5z m1569 0 c12 -12 12 -18 2 -34 -15 -25 -9 -31 36 -37 38 -4 51 12 14 18
-15 2 -23 10 -23 23 0 16 8 21 39 23 25 2 36 0 31 -7 -3 -6 -16 -11 -28 -12
-19 0 -19 -2 6 -11 15 -5 27 -14 27 -19 0 -4 6 -6 14 -3 8 3 17 1 21 -5 10
-17 -4 -51 -21 -51 -8 0 -12 5 -9 10 10 16 -5 33 -19 21 -6 -5 -36 -9 -66 -8
-53 2 -55 3 -60 32 -7 41 -34 40 -38 -2 -4 -43 -32 -45 -32 -4 0 16 -3 36 -6
45 -5 13 2 16 35 16 23 0 41 5 41 10 0 15 19 12 36 -5z m330 0 c12 -12 12 -18
2 -34 -10 -16 -10 -23 0 -33 19 -19 14 -30 -10 -26 -16 2 -24 11 -26 28 -6 42
-22 47 -22 7 0 -26 -4 -37 -15 -37 -11 0 -15 12 -15 45 0 41 2 45 25 45 14 0
25 5 25 10 0 15 19 12 36 -5z m701 0 c12 -12 12 -19 3 -30 -7 -8 -10 -20 -8
-27 5 -14 68 -21 68 -7 0 5 -9 9 -19 9 -23 0 -34 23 -18 39 14 14 67 15 67 1
0 -5 -10 -10 -22 -11 l-23 0 21 -9 c12 -5 25 -13 28 -19 4 -6 13 -8 20 -5 8 3
17 1 20 -5 8 -13 -11 -51 -25 -51 -6 0 -7 5 -4 10 10 16 -5 33 -19 21 -6 -5
-36 -9 -66 -8 -53 2 -55 3 -60 32 -7 42 -34 40 -38 -3 -5 -51 -33 -39 -37 16
l-3 42 39 0 c21 0 39 5 39 10 0 15 19 12 37 -5z m-3703 -27 c3 -10 8 -8 16 5
13 20 60 23 78 5 22 -22 13 -38 -19 -38 -16 0 -28 -4 -25 -9 3 -5 16 -7 27 -4
16 4 20 2 17 -8 -7 -21 -47 -23 -68 -4 -18 16 -20 16 -36 0 -9 -9 -25 -14 -35
-12 -14 4 -19 0 -19 -14 0 -10 -7 -19 -15 -19 -12 0 -15 13 -15 59 0 58 1 60
28 63 31 4 58 -6 66 -24z m2296 -28 c0 -51 -27 -57 -32 -7 -2 17 -7 32 -13 32
-5 0 -11 -15 -13 -32 -5 -53 -32 -43 -32 11 0 41 2 45 28 48 45 6 62 -8 62
-52z m-2634 39 c4 -8 9 -8 17 0 14 14 80 15 72 1 -3 -5 -16 -10 -28 -11 -21 0
-21 -1 2 -10 19 -8 27 -6 38 11 24 34 93 22 93 -17 0 -8 -12 -13 -32 -13 -17
0 -28 -3 -24 -7 4 -4 14 -8 22 -8 22 0 17 -20 -6 -23 -12 -2 -30 4 -39 12 -17
15 -19 15 -31 1 -15 -18 -61 -16 -68 3 -3 9 3 11 22 6 15 -3 26 -2 26 4 0 14
-43 20 -87 12 -33 -7 -30 -15 4 -11 23 3 23 -19 -1 -25 -50 -12 -88 40 -54 74
15 15 65 16 74 1z m662 -1 c38 -38 -12 -93 -63 -70 -46 21 -27 82 25 82 14 0
31 -5 38 -12z m82 2 c0 -6 -7 -13 -15 -16 -9 -4 -15 -19 -15 -35 0 -19 -5 -29
-15 -29 -11 0 -15 12 -15 45 0 43 1 45 30 45 17 0 30 -5 30 -10z m158 -37 c2
-33 0 -43 -12 -43 -9 0 -16 12 -18 33 -2 17 -7 32 -13 32 -5 0 -11 -15 -13
-32 -2 -20 -9 -33 -17 -33 -8 0 -15 13 -17 33 -2 17 -7 32 -13 32 -5 0 -11
-15 -13 -32 -5 -53 -32 -43 -32 12 l0 45 73 -2 72 -3 3 -42z m42 2 c0 -33 -4
-45 -15 -45 -11 0 -15 12 -15 45 0 33 4 45 15 45 11 0 15 -12 15 -45z m110 30
c0 -8 4 -15 9 -15 5 0 11 7 15 15 4 10 20 15 51 15 l45 0 0 -38 c0 -63 -35
-95 -84 -76 -26 10 -18 27 8 20 14 -3 28 -2 31 4 4 6 -5 10 -20 10 -17 0 -29
7 -35 23 -8 21 -9 21 -9 -6 -1 -43 -35 -33 -39 11 -4 42 -26 37 -30 -6 -5 -52
-32 -41 -32 13 l0 45 45 0 c33 0 45 -4 45 -15z m248 3 c7 -7 12 -27 12 -44 0
-32 -1 -33 -42 -31 -35 2 -44 6 -46 22 -2 15 5 24 25 32 l28 11 -27 1 c-16 1
-28 6 -28 11 0 14 64 12 78 -2z m322 -34 c0 -38 -3 -45 -17 -42 -13 2 -19 15
-21 46 -3 37 -1 42 17 42 18 0 21 -6 21 -46z m104 24 l7 -23 9 23 c8 19 16 23
42 20 17 -2 34 -9 36 -17 3 -10 -2 -12 -22 -7 -15 4 -26 2 -26 -4 0 -5 0 -13
0 -17 0 -5 10 -8 23 -8 32 0 28 -29 -5 -33 -19 -2 -31 3 -40 17 -17 27 -28 27
-21 0 5 -17 2 -20 -13 -17 -13 2 -20 13 -22 36 -4 42 -26 37 -30 -6 -5 -52
-32 -41 -32 13 l0 45 44 0 c37 0 45 -4 50 -22z m188 -5 c4 -39 28 -42 28 -4 0
23 5 31 18 31 15 0 18 -7 16 -42 -2 -41 -3 -43 -35 -44 -44 -3 -59 11 -59 52
0 42 27 48 32 7z m266 15 c22 -22 13 -38 -19 -38 -17 0 -28 -4 -24 -10 3 -5
12 -7 19 -4 8 3 17 1 21 -5 9 -15 -20 -25 -50 -17 -29 7 -44 49 -25 71 15 18
61 20 78 3z m132 2 c0 -5 -10 -10 -22 -10 -23 0 -22 -1 2 -13 22 -11 26 -10
35 8 14 27 65 33 82 9 17 -23 16 -39 -3 -58 -19 -20 -48 -20 -67 -1 -13 13
-17 13 -28 -1 -14 -17 -77 -16 -69 1 3 6 13 9 23 8 9 -2 17 2 17 7 0 6 -9 10
-19 10 -21 0 -31 17 -23 38 5 14 72 17 72 2z m150 -20 c0 -20 5 -30 15 -30 10
0 15 10 15 30 0 20 5 30 15 30 11 0 15 -12 15 -45 0 -42 -1 -45 -27 -44 -56 3
-63 8 -63 50 0 28 4 39 15 39 10 0 15 -10 15 -30z m418 -17 c3 -41 3 -42 -30
-41 -62 1 -76 31 -25 53 l32 14 -27 1 c-16 0 -28 5 -28 11 0 6 16 9 38 7 36
-3 37 -4 40 -45z m560 35 c22 -22 13 -38 -20 -38 -17 0 -28 -3 -24 -7 4 -4 14
-8 22 -8 25 0 20 -20 -7 -23 -15 -2 -32 5 -44 18 -15 17 -16 24 -7 45 13 27
58 35 80 13z m160 -34 c3 -40 2 -41 -30 -41 -61 -1 -76 29 -25 51 32 14 32 14
5 15 -43 2 -58 -9 -58 -40 0 -19 -5 -29 -15 -29 -11 0 -15 12 -15 45 l0 46 68
-3 67 -3 3 -41z m117 26 c3 -11 10 -20 15 -20 4 0 10 9 13 20 3 11 12 20 21
20 13 0 13 -6 -5 -47 -11 -26 -25 -53 -31 -60 -14 -18 -48 -16 -48 2 0 8 7 15
15 15 8 0 15 2 15 5 0 3 -20 53 -26 63 0 1 -9 0 -18 -4 -10 -4 -16 -17 -16
-35 0 -19 -5 -29 -15 -29 -11 0 -15 12 -15 45 l0 45 44 0 c36 0 46 -4 51 -20z
m193 -27 l3 -42 -43 2 c-53 2 -64 28 -21 51 26 14 26 15 6 16 -13 0 -23 5 -23
11 0 6 16 9 38 7 36 -3 37 -4 40 -45z m470 0 c2 -33 0 -43 -12 -43 -9 0 -16
12 -18 33 -2 17 -7 32 -13 32 -5 0 -11 -15 -13 -32 -2 -20 -9 -33 -17 -33 -8
0 -15 13 -17 33 -2 17 -7 32 -13 32 -5 0 -11 -15 -13 -32 -5 -53 -32 -43 -32
12 l0 45 73 -2 72 -3 3 -42z m52 16 c0 -38 24 -35 28 4 6 47 32 33 32 -17 l0
-44 -41 0 c-42 -1 -43 1 -53 56 -5 27 -3 32 14 32 16 0 20 -7 20 -31z m150 21
c0 -5 -12 -10 -27 -11 l-28 -1 28 -10 c35 -13 36 -45 2 -54 -29 -7 -55 0 -55
16 0 6 10 8 25 4 15 -4 25 -2 25 5 0 6 -9 11 -19 11 -23 0 -35 15 -27 35 6 17
76 21 76 5z m40 -35 c0 -33 -4 -45 -15 -45 -11 0 -15 12 -15 45 0 33 4 45 15
45 11 0 15 -12 15 -45z m98 27 c3 -9 -5 -12 -24 -10 -21 2 -29 -2 -32 -15 -3
-14 2 -17 24 -15 34 4 44 -19 11 -27 -51 -13 -89 39 -55 73 16 16 70 11 76 -6z
m1483 -49 c-9 -16 -10 -16 -11 4 0 12 3 30 7 40 7 16 8 16 11 -4 2 -12 -1 -30
-7 -40z m-61 -40 c24 -13 39 -23 32 -23 -36 0 -122 72 -122 102 0 6 10 -4 23
-23 12 -19 42 -44 67 -56z m188 45 c-19 -28 -76 -68 -97 -68 -9 0 3 9 26 19
23 11 49 31 58 45 10 14 20 26 22 26 3 0 -1 -10 -9 -22z m-5078 -104 c0 -9 -8
-14 -17 -13 -10 1 -26 1 -37 0 -16 -1 -17 -3 -5 -18 11 -13 11 -17 2 -20 -7
-3 -13 -18 -13 -34 0 -46 -26 -36 -33 13 -7 54 5 76 46 81 17 2 38 5 45 5 6 1
12 -5 12 -14z m-624 -9 c-4 -11 1 -15 17 -15 32 0 47 -18 47 -57 0 -41 -27
-46 -32 -5 -2 16 -9 27 -18 27 -10 0 -14 -8 -12 -27 3 -23 -1 -28 -17 -28 -19
0 -21 6 -21 60 0 54 2 60 21 60 15 0 19 -5 15 -15z m1594 -45 l0 -60 -38 0
c-43 0 -62 14 -62 46 0 28 24 48 50 41 15 -4 20 0 20 14 0 10 7 19 15 19 12 0
15 -13 15 -60z m260 41 c0 -14 6 -17 26 -13 20 3 26 0 31 -17 7 -26 15 -27 31
-1 14 22 51 27 70 8 16 -16 16 -51 0 -45 -7 2 -22 1 -33 -4 -17 -7 -16 -8 8
-8 41 -1 33 -21 -9 -21 -27 0 -37 5 -41 20 -3 11 -9 20 -13 20 -5 0 -6 -9 -3
-20 4 -15 0 -20 -16 -20 -17 0 -21 6 -21 31 0 38 -24 35 -28 -4 -2 -15 -10
-27 -18 -27 -11 0 -14 15 -14 60 0 47 3 60 15 60 8 0 15 -8 15 -19z m550 4 c0
-8 8 -15 18 -15 27 0 42 -20 42 -57 0 -41 -27 -46 -32 -6 -4 39 -28 42 -28 4
0 -24 -4 -31 -20 -31 -17 0 -20 7 -20 46 0 38 -3 45 -17 42 -14 -3 -17 -12
-15 -46 3 -37 1 -42 -17 -42 -18 0 -21 6 -21 45 0 38 -3 45 -20 45 -11 0 -20
4 -20 10 0 5 26 11 58 13 31 2 65 4 75 5 9 1 17 -5 17 -13z m790 -3 c0 -13 8
-18 28 -17 25 0 27 -3 30 -42 2 -34 0 -43 -12 -43 -11 0 -16 10 -16 30 0 20
-5 30 -15 30 -10 0 -15 -10 -15 -30 0 -20 -5 -30 -15 -30 -12 0 -15 13 -15 60
0 47 3 60 15 60 8 0 15 -8 15 -18z m590 -1 c0 -14 6 -17 26 -13 20 3 26 0 31
-17 7 -26 15 -27 31 -1 16 26 54 26 77 0 15 -17 16 -24 7 -45 -15 -33 -81 -37
-89 -5 -3 11 -9 20 -13 20 -5 0 -6 -9 -3 -20 4 -15 0 -20 -16 -20 -17 0 -21 6
-21 31 0 38 -24 35 -28 -4 -2 -15 -10 -27 -18 -27 -11 0 -14 15 -14 60 0 47 3
60 15 60 8 0 15 -8 15 -19z m-4496 -10 c11 -12 14 -21 7 -26 -6 -3 -11 -15
-11 -26 0 -15 7 -19 38 -18 31 0 33 2 16 9 -30 12 -38 28 -24 45 15 19 74 20
67 3 -2 -7 -11 -12 -21 -10 -9 2 -16 -2 -16 -8 0 -5 9 -10 20 -10 11 0 20 -4
20 -10 0 -5 9 -10 19 -10 26 0 31 -10 20 -37 -10 -27 -31 -31 -27 -6 3 15 -5
17 -70 14 l-72 -3 -6 32 c-9 40 -40 38 -36 -3 2 -21 -1 -27 -18 -27 -17 0 -20
6 -20 44 0 44 1 45 32 44 18 -1 34 4 36 10 6 18 27 14 46 -7z m1044 -2 c10
-16 17 -18 25 -10 17 17 67 14 67 -5 0 -11 -6 -14 -20 -9 -11 4 -20 2 -20 -4
0 -6 9 -11 19 -11 11 0 23 -4 26 -10 3 -5 15 -10 26 -10 21 0 24 -12 9 -41
-13 -23 -32 -25 -28 -3 3 14 -8 17 -67 18 -69 1 -70 2 -73 29 -2 19 -9 27 -23
27 -19 0 -23 -9 -20 -42 2 -12 -5 -18 -18 -18 -18 0 -21 6 -21 44 l0 44 37 0
c21 0 39 5 41 11 6 18 26 13 40 -10z m771 -1 c10 -16 10 -23 2 -26 -15 -5 -14
-39 2 -44 6 -2 26 -2 42 2 l30 6 -28 7 c-22 6 -28 13 -25 30 2 17 11 23 36 25
24 3 32 -1 32 -13 0 -12 -6 -15 -20 -10 -11 4 -20 2 -20 -4 0 -6 9 -11 19 -11
11 0 23 -4 26 -10 3 -5 15 -10 26 -10 21 0 24 -12 9 -41 -13 -23 -32 -25 -28
-3 3 14 -8 17 -67 18 -69 1 -70 2 -73 29 -2 19 -9 27 -23 27 -19 0 -23 -9 -20
-42 2 -12 -5 -18 -18 -18 -18 0 -21 6 -21 44 l0 44 37 0 c21 0 39 5 41 11 6
18 26 13 41 -11z m697 1 c14 -16 15 -23 7 -26 -15 -5 -17 -43 -3 -43 6 0 10
-4 10 -10 0 -5 -11 -10 -25 -10 -21 0 -25 5 -25 30 0 38 -18 40 -22 3 -3 -24
-8 -28 -39 -31 -43 -4 -64 16 -55 53 7 29 50 44 77 26 15 -9 21 -7 31 9 16 25
20 25 44 -1z m1330 7 c16 -17 19 -36 4 -36 -16 0 -12 -21 7 -43 17 -18 17 -19
-12 -15 -24 2 -31 9 -37 38 -12 60 6 87 38 56z m-3976 -25 c5 -11 10 -31 10
-46 0 -25 -3 -26 -42 -23 -35 2 -43 7 -43 23 0 12 9 22 25 26 14 4 21 8 15 9
-5 1 -14 3 -20 5 -5 1 -14 3 -18 3 -5 1 -5 7 -2 12 11 18 64 11 75 -9z m388 4
c-1 -5 -8 -9 -15 -7 -22 5 -14 -15 8 -21 36 -10 20 -42 -24 -45 -21 -2 -37 1
-37 7 0 6 12 11 28 12 25 0 25 1 6 9 -30 12 -38 28 -23 46 13 16 61 15 57 -1z
m114 -5 c12 -18 12 -18 26 1 16 23 55 25 72 4 12 -14 15 -14 30 0 21 19 54 19
70 0 11 -13 14 -13 27 1 9 8 27 14 42 12 32 -4 36 -33 4 -33 -13 0 -23 -3 -23
-7 0 -5 0 -13 0 -18 0 -6 11 -8 26 -4 20 5 25 3 22 -7 -7 -20 -67 -24 -74 -5
-4 11 -18 16 -43 15 -30 -2 -31 -3 -8 -6 15 -2 27 -9 27 -14 0 -14 -68 -11
-77 4 -11 19 -35 26 -58 16 -17 -7 -16 -8 8 -8 40 -1 33 -21 -8 -21 -20 0 -37
6 -43 16 -8 14 -10 14 -21 0 -8 -9 -24 -16 -37 -16 -17 0 -24 -6 -24 -20 0
-11 -7 -20 -15 -20 -12 0 -15 14 -15 64 l0 64 40 0 c29 1 44 -5 52 -18z m536
8 c7 -7 12 -27 12 -46 0 -33 0 -33 -42 -30 -35 2 -43 7 -43 23 0 14 9 22 30
26 17 4 23 8 15 9 -8 1 -19 3 -25 5 -5 1 -14 3 -20 4 -17 2 18 21 41 21 11 0
25 -5 32 -12z m432 -33 c0 -33 -4 -45 -15 -45 -11 0 -15 12 -15 45 0 33 4 45
15 45 11 0 15 -12 15 -45z m98 33 c17 -15 16 -78 -2 -78 -9 0 -16 12 -18 28
-2 16 -9 27 -18 27 -10 0 -14 -8 -12 -27 2 -22 -1 -28 -18 -28 -17 0 -20 6
-20 44 l0 44 38 0 c20 0 43 -5 50 -10z m100 -1 c20 -24 17 -39 -7 -43 -35 -6
-39 -14 -7 -14 16 0 25 -4 21 -10 -9 -14 -58 -13 -73 2 -7 7 -12 22 -12 35 0
36 55 58 78 30z m140 1 c7 -7 12 -27 12 -46 0 -33 0 -33 -42 -30 -35 2 -43 7
-43 23 0 14 9 22 30 26 17 4 23 8 15 9 -8 1 -19 3 -25 5 -5 1 -14 3 -20 4 -17
2 18 21 41 21 11 0 25 -5 32 -12z m400 0 c7 -7 12 -27 12 -46 0 -33 0 -33 -42
-30 -35 2 -43 7 -43 23 0 14 8 21 28 23 15 2 25 7 22 12 -3 4 -14 6 -25 3 -19
-5 -27 7 -13 20 11 11 48 8 61 -5z m110 -1 c18 -14 16 -77 -3 -77 -10 0 -15
10 -15 30 0 20 -5 30 -15 30 -10 0 -15 -10 -15 -30 0 -20 -5 -30 -15 -30 -11
0 -15 12 -15 44 0 44 1 45 33 44 17 0 38 -5 45 -11z m622 -1 c0 -6 5 -5 12 2
16 16 71 16 65 0 -2 -7 -11 -12 -21 -10 -9 2 -16 -2 -16 -8 0 -5 9 -10 20 -10
11 0 20 -4 20 -9 0 -5 10 -11 23 -13 12 -2 21 -7 20 -13 -4 -13 -123 -18 -123
-5 0 5 12 10 28 11 15 0 20 3 12 6 -8 3 -23 12 -32 20 -21 19 -38 9 -38 -23 0
-15 -6 -24 -15 -24 -11 0 -15 12 -15 44 0 43 1 45 30 44 17 -1 30 -6 30 -12z
m458 2 c21 -21 14 -43 -15 -46 -39 -3 -42 -12 -4 -12 19 0 30 -4 26 -10 -9
-14 -58 -13 -73 2 -28 28 -7 78 33 78 12 0 26 -5 33 -12z m92 -2 c0 -6 5 -5
12 2 27 27 78 7 78 -31 0 -11 -5 -17 -12 -14 -7 2 -22 1 -33 -4 -17 -7 -16 -8
8 -8 40 -1 33 -21 -8 -21 -35 0 -63 29 -50 50 3 6 -1 10 -9 10 -11 0 -16 -9
-16 -30 0 -23 -5 -30 -19 -30 -17 0 -19 6 -16 43 2 23 4 42 4 43 5 7 61 -2 61
-10z m220 -5 c5 -11 10 -31 10 -46 0 -25 -3 -26 -42 -23 -35 2 -43 7 -43 23 0
12 9 22 25 26 14 4 21 8 15 9 -5 1 -14 3 -20 5 -5 1 -14 3 -18 3 -5 1 -5 7 -2
12 11 18 64 11 75 -9z m80 4 c0 -7 -7 -15 -15 -19 -8 -3 -15 -17 -15 -31 0
-16 -6 -25 -15 -25 -11 0 -15 12 -15 44 0 43 1 45 30 44 17 -1 30 -7 30 -13z
m85 -1 c22 -22 14 -39 -18 -38 -15 0 -27 -4 -27 -8 0 -4 11 -8 25 -8 14 0 25
-4 25 -10 0 -5 -15 -10 -33 -10 -54 0 -74 35 -40 72 20 22 46 23 68 2z m325
-1 c10 -17 10 -17 20 0 14 22 70 24 70 1 0 -11 -6 -14 -20 -9 -11 3 -20 2 -20
-3 0 -5 11 -12 25 -14 17 -4 25 -1 25 8 0 15 30 34 54 34 18 0 48 -29 43 -43
-1 -5 -14 -12 -27 -14 -34 -5 -38 -13 -7 -13 15 0 27 -4 27 -10 0 -14 -64 -12
-79 3 -11 10 -14 10 -18 0 -5 -15 -73 -18 -73 -3 0 6 12 10 28 10 l27 1 -30
13 c-27 11 -31 11 -40 -8 -21 -42 -95 -26 -95 20 0 39 70 59 90 27z m278 -10
l10 -28 7 28 c4 15 13 27 20 27 7 0 18 -12 23 -27 l10 -28 11 28 c6 15 15 27
21 27 13 0 13 -4 -2 -51 -13 -45 -46 -54 -56 -17 l-5 22 -8 -22 c-12 -33 -37
-26 -54 14 -19 45 -19 54 -1 54 8 0 19 -12 24 -27z m2876 -97 c96 -40 110
-167 25 -229 -63 -46 -171 -27 -210 37 -71 116 54 247 185 192z m617 -2 c35
-18 59 -67 59 -119 0 -104 -85 -164 -170 -120 -39 20 -60 63 -60 120 0 106 84
165 171 119z m-993 -65 l30 -72 21 48 c12 27 24 59 27 72 5 20 13 23 50 23 24
0 44 -2 44 -4 0 -2 -20 -51 -44 -108 -24 -56 -46 -111 -49 -121 -6 -15 -16
-18 -53 -15 l-46 3 -53 123 -53 122 48 0 48 0 30 -71z m572 -19 l0 -90 60 0
60 0 0 -35 0 -35 -105 0 -105 0 0 125 0 125 45 0 45 0 0 -90z m620 -35 l0
-125 -45 0 -45 0 0 95 c0 88 -1 95 -20 95 -16 0 -20 7 -20 30 l0 30 65 0 65 0
0 -125z m-8037 70 c1 -5 -6 -11 -15 -13 -11 -2 -18 3 -18 13 0 17 30 18 33 0z
m3220 0 c1 -5 -6 -11 -15 -13 -11 -2 -18 3 -18 13 0 17 30 18 33 0z m1470 0
c1 -5 -6 -11 -15 -13 -11 -2 -18 3 -18 13 0 17 30 18 33 0z m-4800 -13 c-2 -7
8 -12 22 -12 27 0 45 -25 45 -64 0 -16 -6 -26 -15 -26 -10 0 -15 10 -15 31 0
24 -4 30 -17 27 -12 -2 -18 -13 -18 -28 0 -15 -6 -26 -17 -28 -16 -3 -18 5
-18 58 0 53 2 61 18 58 9 -2 16 -10 15 -16z m267 -7 c0 -28 3 -30 30 -13 26
16 39 2 14 -16 -19 -14 -18 -15 5 -40 22 -23 22 -26 6 -26 -10 0 -27 7 -37 17
-17 15 -18 15 -18 0 0 -10 -7 -17 -15 -17 -9 0 -15 9 -15 23 0 12 -3 39 -6 60
-6 33 -4 37 15 37 16 0 21 -6 21 -25z m216 10 c-4 -11 1 -15 17 -15 32 0 47
-18 47 -57 0 -23 -5 -33 -15 -33 -10 0 -15 10 -15 31 0 24 -4 30 -17 27 -12
-2 -18 -13 -18 -28 0 -15 -6 -26 -17 -28 -16 -3 -18 5 -18 57 0 55 2 61 21 61
15 0 19 -5 15 -15z m1309 -1 c-16 -12 -17 -16 -6 -23 8 -6 24 -5 38 2 33 15
73 -5 73 -36 0 -30 -18 -47 -50 -47 -30 0 -50 17 -50 42 0 10 -4 18 -10 18 -5
0 -10 -13 -10 -30 0 -20 -5 -30 -15 -30 -10 0 -15 10 -15 30 0 23 -4 30 -20
30 -16 0 -20 -7 -20 -30 0 -20 -5 -30 -15 -30 -11 0 -15 12 -15 44 0 43 1 45
31 44 20 -1 35 5 41 15 5 10 21 17 36 17 26 -1 26 -1 7 -16z m2205 1 c0 -9 9
-15 23 -15 29 0 47 -18 47 -45 0 -31 -19 -45 -62 -45 l-38 0 0 60 c0 47 3 60
15 60 8 0 15 -7 15 -15z m-4051 -17 c10 -16 10 -23 2 -26 -14 -5 -15 -42 -1
-42 6 0 10 -5 10 -11 0 -6 -10 -9 -22 -7 -16 2 -24 11 -27 28 -1 14 -7 28 -13
31 -12 7 11 49 27 49 6 0 16 -10 24 -22z m480 0 c10 -16 10 -23 2 -26 -14 -5
-15 -42 -1 -42 6 0 10 -5 10 -11 0 -6 -10 -9 -22 -7 -16 2 -24 11 -26 28 -2
14 -7 29 -12 34 -10 10 10 46 25 46 6 0 16 -10 24 -22z m275 3 c11 -12 14 -21
7 -26 -14 -8 -14 -45 -1 -45 6 0 10 -4 10 -10 0 -14 -36 -12 -48 3 -5 6 -12
21 -15 32 -3 13 -5 8 -6 -13 -1 -33 -2 -33 -43 -30 -35 2 -43 7 -43 23 0 13 8
21 23 23 12 2 22 8 22 13 0 6 -9 9 -20 7 -10 -2 -19 2 -20 7 -1 15 49 18 66 4
12 -10 16 -9 21 9 7 27 24 28 47 3z m2533 -1 c8 -12 9 -21 3 -25 -13 -8 -13
-45 0 -45 6 0 10 -5 10 -11 0 -6 -10 -9 -22 -7 -16 2 -24 11 -26 28 -2 14 -7
29 -12 34 -10 10 10 46 25 46 6 0 16 -9 22 -20z m347 1 c11 -12 14 -21 7 -26
-14 -8 -14 -45 -1 -45 6 0 10 -5 10 -11 0 -6 -10 -9 -22 -7 -17 2 -24 11 -28
33 -4 26 -10 30 -40 32 l-35 2 28 -12 c41 -16 34 -52 -10 -52 -18 0 -33 5 -33
10 1 6 10 9 20 7 28 -5 25 7 -5 18 -14 5 -25 14 -25 19 0 19 31 33 60 27 22
-4 32 -1 36 9 8 20 17 19 38 -4z m280 0 c11 -12 14 -21 7 -26 -13 -7 -15 -45
-3 -45 4 0 13 5 20 12 9 9 15 9 24 0 9 -9 8 -18 -2 -39 -13 -26 -14 -27 -17
-7 -3 16 -9 20 -24 17 -24 -7 -49 13 -49 38 0 12 -7 19 -20 19 -16 0 -20 -7
-20 -30 0 -20 -5 -30 -15 -30 -11 0 -15 12 -15 45 l0 45 35 -3 c25 -3 35 0 35
9 0 20 24 17 44 -5z m368 -1 c19 -17 19 -20 5 -26 -21 -8 -22 -33 -2 -40 25
-10 17 -26 -12 -22 -22 2 -29 10 -34 33 l-7 30 -1 -32 c-1 -32 -2 -33 -45 -33
-48 0 -56 9 -56 61 0 19 5 29 15 29 10 0 15 -10 15 -30 0 -20 5 -30 15 -30 10
0 15 10 15 31 0 28 2 31 25 25 18 -5 25 -2 25 9 0 21 17 19 42 -5z m417 -2
c10 -16 10 -23 2 -26 -14 -5 -15 -42 -1 -42 6 0 10 -5 10 -11 0 -6 -10 -9 -22
-7 -16 2 -24 11 -26 28 -2 14 -7 29 -12 34 -10 10 10 46 25 46 6 0 16 -10 24
-22z m-4539 -43 c0 -33 -4 -45 -15 -45 -11 0 -15 12 -15 45 0 33 4 45 15 45
11 0 15 -12 15 -45z m98 32 c18 -14 16 -77 -3 -77 -10 0 -15 10 -15 30 0 20
-5 30 -15 30 -10 0 -15 -10 -15 -30 0 -20 -5 -30 -15 -30 -11 0 -15 11 -15 43
0 42 1 44 33 44 17 0 38 -4 45 -10z m587 -7 c3 -11 10 -20 15 -20 4 0 10 9 13
20 7 28 24 25 40 -6 l14 -27 6 25 c6 22 12 26 49 26 56 1 67 -6 70 -48 3 -34
2 -35 -36 -38 -40 -3 -59 10 -49 35 3 7 16 13 29 13 13 0 24 4 24 9 0 5 -13 9
-30 9 -24 -1 -31 -7 -40 -35 -13 -38 -50 -48 -50 -13 0 11 -4 20 -9 20 -5 0
-11 -9 -14 -20 -8 -33 -34 -23 -51 20 -20 49 -20 50 -2 50 8 0 18 -9 21 -20z
m248 -6 l13 -25 11 24 c10 20 19 25 54 25 54 1 69 -11 69 -55 0 -34 0 -34 -42
-31 -35 2 -43 7 -43 23 0 14 9 22 30 26 34 8 32 11 -8 13 -25 2 -31 -4 -49
-46 -16 -38 -25 -48 -44 -48 -13 0 -24 5 -24 10 0 6 7 10 15 10 8 0 15 2 15 4
0 2 -7 20 -15 39 -8 20 -15 41 -15 47 0 19 19 10 33 -16z m245 13 c18 -14 16
-77 -3 -77 -10 0 -15 10 -15 30 0 20 -5 30 -15 30 -10 0 -15 -10 -15 -30 0
-47 -27 -38 -32 11 -2 22 -2 41 -1 43 7 7 69 2 81 -7z m122 -36 c0 -26 -5 -52
-12 -59 -16 -16 -81 -16 -75 1 2 6 13 11 25 9 11 -2 24 3 28 9 5 9 2 10 -9 6
-9 -3 -26 2 -39 12 -19 16 -21 22 -11 44 10 22 19 26 53 25 l40 0 0 -47z m145
32 c13 -13 17 -13 31 1 8 9 24 16 34 16 19 0 50 -25 50 -41 0 -5 -13 -9 -30
-9 -16 0 -30 -5 -30 -11 0 -5 9 -9 20 -7 10 2 19 -1 20 -7 1 -18 -47 -17 -65
1 -16 16 -18 16 -27 1 -5 -9 -20 -17 -33 -17 -16 0 -25 -6 -25 -15 0 -8 -7
-15 -15 -15 -12 0 -15 13 -15 59 l0 59 35 0 c20 0 42 -7 50 -15z m563 4 c18
-12 16 -77 -3 -77 -10 0 -15 10 -15 30 0 20 -5 30 -15 30 -10 0 -15 -10 -15
-30 0 -38 -27 -41 -32 -3 -4 39 -28 42 -28 4 0 -24 -4 -31 -20 -31 -16 0 -20
7 -20 36 0 31 -2 35 -15 24 -8 -7 -15 -23 -15 -36 0 -15 -6 -24 -15 -24 -11 0
-15 11 -15 43 l0 44 98 -1 c53 -1 103 -5 110 -9z m102 -6 c5 -11 10 -31 10
-46 0 -25 -3 -26 -42 -23 -35 2 -43 7 -43 23 0 13 8 21 23 23 26 4 30 24 5 21
-28 -2 -35 0 -28 11 11 18 64 11 75 -9z m108 -28 c2 -34 0 -43 -12 -43 -11 0
-16 10 -16 30 0 20 -5 30 -15 30 -10 0 -15 -10 -15 -30 0 -20 -5 -30 -15 -30
-11 0 -15 12 -15 44 l0 45 43 -2 42 -2 3 -42z m100 29 c3 -9 -3 -13 -19 -10
-18 2 -24 -2 -24 -17 0 -15 6 -19 24 -17 16 3 22 -1 19 -10 -7 -21 -59 -16
-74 7 -12 18 -11 24 2 44 17 24 64 26 72 3z m92 3 c11 -13 14 -13 27 0 16 17
59 20 68 5 4 -6 -6 -10 -22 -10 l-28 -1 28 -15 c40 -22 32 -48 -17 -52 -28 -3
-37 0 -34 10 3 7 16 12 29 10 l24 -2 -25 14 c-18 10 -37 12 -65 6 -38 -7 -39
-12 -3 -14 29 -2 25 -21 -5 -24 -34 -4 -57 13 -57 42 0 42 53 63 80 31z m214
9 c11 -4 16 -19 16 -45 0 -37 -1 -39 -33 -39 -18 0 -38 5 -44 11 -17 17 -4 39
23 39 13 0 24 5 24 11 0 5 -8 9 -17 8 -28 -2 -35 0 -28 11 7 11 35 13 59 4z
m96 -6 c0 -5 -7 -11 -15 -14 -9 -4 -15 -19 -15 -35 0 -19 -5 -29 -15 -29 -11
0 -15 12 -15 44 0 43 1 45 30 44 17 -1 30 -5 30 -10z m88 -15 c14 -22 13 -23
-17 -23 -17 0 -31 -5 -31 -11 0 -5 8 -9 18 -7 11 2 21 -1 23 -7 6 -15 -50 -18
-67 -4 -19 16 -18 56 4 68 25 16 53 9 70 -16z m140 14 c18 -14 16 -77 -3 -77
-10 0 -15 10 -15 30 0 20 -5 30 -15 30 -10 0 -15 -10 -15 -30 0 -23 -4 -30
-20 -30 -17 0 -20 7 -20 38 0 21 2 41 5 44 9 9 70 6 83 -5z m110 1 c7 -7 12
-21 12 -33 0 -29 -19 -45 -52 -45 -25 0 -48 23 -48 49 0 33 63 54 88 29z m160
-45 c-3 -51 -6 -58 -25 -61 -13 -2 -23 1 -23 7 0 6 5 11 10 11 6 0 10 23 10
50 0 38 4 50 15 50 13 0 15 -11 13 -57z m52 27 c0 -20 5 -30 15 -30 10 0 15
10 15 30 0 20 5 30 15 30 11 0 15 -12 15 -46 l0 -45 -42 3 c-43 3 -43 3 -46
46 -2 33 0 42 12 42 11 0 16 -10 16 -30z m334 24 c11 -4 16 -19 16 -45 0 -37
-1 -39 -33 -39 -18 0 -38 5 -44 11 -17 17 -4 39 23 39 13 0 24 5 24 11 0 5 -8
9 -17 8 -28 -2 -35 0 -28 11 7 11 35 13 59 4z m664 -13 c3 -10 -1 -12 -16 -9
-26 7 -50 -16 -30 -28 7 -5 21 -7 32 -5 11 2 17 -2 14 -11 -11 -34 -88 -11
-88 27 0 38 77 61 88 26z m95 -2 c19 -27 10 -58 -19 -65 -49 -13 -84 27 -58
64 19 28 59 28 77 1z m104 9 c19 -15 17 -78 -2 -78 -10 0 -15 10 -15 31 0 23
-4 30 -17 27 -11 -2 -18 -13 -18 -28 0 -14 -7 -26 -16 -28 -12 -2 -15 6 -13
40 2 24 3 43 3 44 4 7 69 0 78 -8z m173 -7 c5 -11 10 -31 10 -46 0 -25 -3 -26
-42 -23 -35 2 -43 7 -43 23 0 13 8 21 23 23 26 4 30 24 5 21 -28 -2 -35 0 -28
11 11 18 64 11 75 -9z m50 -26 c0 -33 -4 -45 -15 -45 -11 0 -15 12 -15 45 0
33 4 45 15 45 11 0 15 -12 15 -45z m98 32 c18 -14 16 -77 -3 -77 -10 0 -15 10
-15 30 0 20 -5 30 -15 30 -10 0 -15 -10 -15 -30 0 -20 -5 -30 -15 -30 -11 0
-15 11 -15 43 0 42 1 44 33 44 17 0 38 -4 45 -10z m2857 -91 c13 -19 14 -29 6
-45 -25 -45 -91 -33 -91 17 0 54 56 72 85 28z m-6352 -71 c1 -5 -6 -11 -15
-13 -11 -2 -18 3 -18 13 0 17 30 18 33 0z m2067 0 c0 -8 -6 -15 -14 -15 -17 0
-28 14 -19 24 12 12 33 6 33 -9z m-3030 -55 l0 -60 -40 0 c-29 0 -42 5 -50 20
-11 21 -70 29 -70 9 0 -5 10 -9 22 -7 11 2 23 -3 25 -9 7 -19 -52 -16 -71 3
-9 8 -16 22 -16 31 0 25 -25 8 -28 -20 -6 -47 -32 -33 -32 17 0 43 1 45 30 44
17 -1 30 -6 30 -12 0 -6 5 -5 12 2 18 18 65 15 78 -5 10 -17 10 -17 20 0 6 9
22 17 35 17 16 0 25 6 25 15 0 8 7 15 15 15 12 0 15 -13 15 -60z m440 45 c0
-9 9 -15 25 -15 13 0 28 -7 33 -16 8 -14 10 -14 21 0 28 34 84 14 84 -29 0
-43 -56 -63 -84 -29 -11 14 -13 14 -21 0 -6 -11 -24 -16 -53 -16 l-45 0 0 60
c0 53 2 60 20 60 11 0 20 -7 20 -15z m210 -45 c0 -50 -3 -60 -17 -60 -15 0
-18 10 -20 60 -1 53 1 60 18 60 17 0 19 -7 19 -60z m260 50 c16 -10 10 -14
-35 -23 -18 -3 -17 -5 8 -15 57 -24 41 -75 -22 -70 -39 3 -45 23 -7 23 35 0
43 13 13 20 -41 11 -53 32 -32 55 19 21 51 26 75 10z m510 -5 c0 -9 9 -15 23
-15 32 0 47 -18 47 -57 0 -26 -4 -33 -20 -33 -16 0 -20 7 -20 30 0 20 -5 30
-15 30 -10 0 -15 -10 -15 -30 0 -20 -5 -30 -15 -30 -12 0 -15 13 -15 60 0 47
3 60 15 60 8 0 15 -7 15 -15z m270 -45 c0 -53 -2 -60 -20 -60 -17 0 -20 7 -20
44 0 25 -5 46 -12 48 -19 7 2 28 28 28 23 0 24 -3 24 -60z m93 43 c15 -13 21
-15 24 -5 6 16 21 15 39 -2 16 -17 19 -36 4 -36 -15 0 -12 -26 5 -40 13 -11
15 -5 15 44 0 50 2 56 21 56 15 0 19 -5 15 -15 -4 -11 1 -15 17 -15 32 0 47
-18 47 -57 0 -23 -5 -33 -15 -33 -10 0 -15 10 -15 31 0 24 -4 30 -17 27 -12
-2 -18 -13 -18 -28 0 -23 -4 -25 -45 -25 -42 0 -45 2 -48 29 l-4 29 -19 -32
c-15 -25 -25 -31 -55 -31 -24 0 -34 4 -31 13 2 6 10 13 18 13 8 1 20 2 27 3 6
0 12 5 12 11 0 5 -7 7 -15 4 -19 -8 -45 13 -45 35 0 40 49 54 83 24z m1297
-44 c0 -51 -3 -60 -17 -57 -13 2 -17 15 -18 53 -2 57 1 65 21 65 11 0 14 -15
14 -61z m-1714 37 c16 -17 19 -36 4 -36 -5 0 -10 -9 -10 -20 0 -11 5 -20 10
-20 6 0 10 -5 10 -11 0 -6 -10 -9 -22 -7 -17 2 -24 11 -26 31 -2 15 -8 27 -13
27 -13 0 -11 18 4 35 16 18 25 18 43 1z m1000 0 c16 -17 19 -36 4 -36 -16 0
-12 -30 5 -36 25 -10 17 -26 -12 -22 -22 2 -29 10 -35 38 -12 60 6 87 38 56z
m611 -6 c8 -12 9 -21 3 -25 -13 -8 -13 -45 0 -45 6 0 10 -4 10 -10 0 -14 -36
-12 -48 3 -5 6 -12 21 -15 32 -3 13 -5 9 -6 -12 -1 -26 -5 -33 -21 -33 -16 0
-20 7 -20 30 0 20 -5 30 -15 30 -10 0 -15 -10 -15 -30 0 -20 -5 -30 -15 -30
-11 0 -15 12 -15 45 l0 45 38 0 c21 0 43 -5 49 -11 8 -8 13 -5 18 10 8 26 36
27 52 1z m-3447 -9 c0 -5 -10 -11 -22 -14 -23 -3 -23 -3 2 -14 29 -12 93 -5
84 9 -3 5 -14 6 -25 3 -13 -4 -19 -2 -19 9 0 11 10 16 34 16 37 0 46 -12 46
-61 0 -27 -3 -29 -39 -29 -22 0 -42 6 -45 13 -5 10 -7 10 -12 0 -9 -19 -74
-17 -74 2 0 11 7 14 28 10 l27 -5 -27 12 c-26 11 -36 36 -21 51 10 10 63 8 63
-2z m198 -10 c4 -10 -2 -12 -22 -7 -19 5 -28 2 -33 -10 -7 -20 12 -33 39 -26
15 3 19 1 16 -9 -6 -18 -55 -24 -74 -8 -17 14 -18 51 -2 67 16 16 70 11 76 -7z
m447 -8 l7 -28 14 27 c14 27 17 28 97 27 47 -1 85 -7 89 -13 14 -21 9 -76 -7
-76 -10 0 -15 10 -15 30 0 20 -5 30 -15 30 -10 0 -15 -10 -15 -30 0 -38 -27
-41 -32 -3 -4 39 -28 42 -28 4 0 -47 -28 -41 -32 7 l-3 37 -24 -52 c-21 -47
-27 -53 -53 -53 -17 0 -27 4 -23 10 3 6 13 10 21 10 18 0 18 0 -3 47 -16 35
-21 38 -48 33 l-30 -6 33 -11 c34 -13 39 -22 20 -41 -16 -16 -81 -16 -75 1 2
6 14 11 27 9 14 -2 20 0 16 7 -4 6 -13 11 -21 11 -21 0 -28 19 -15 35 8 9 31
15 60 15 44 0 48 -2 55 -27z m555 13 c0 -9 -8 -13 -22 -9 -19 3 -17 1 7 -13
17 -10 37 -18 45 -19 8 0 16 -7 18 -16 2 -12 -9 -16 -58 -17 -47 -1 -60 1 -60
13 0 11 7 14 28 10 l27 -5 -27 12 c-26 11 -36 36 -21 51 13 13 63 7 63 -7z
m230 -31 c0 -33 -4 -45 -15 -45 -11 0 -15 12 -15 45 0 33 4 45 15 45 11 0 15
-12 15 -45z m108 -2 c2 -34 0 -43 -12 -43 -11 0 -16 10 -16 30 0 20 -5 30 -15
30 -10 0 -15 -10 -15 -30 0 -20 -5 -30 -15 -30 -11 0 -15 12 -15 46 l0 45 43
-3 c42 -3 42 -3 45 -45z m100 28 c3 -10 -1 -12 -16 -9 -26 7 -50 -16 -30 -28
7 -5 21 -7 32 -5 11 2 17 -2 14 -11 -3 -7 -19 -14 -36 -16 -26 -3 -34 2 -43
21 -17 38 4 69 43 65 17 -2 34 -9 36 -17z m90 7 c21 -21 13 -38 -18 -38 -16 0
-30 -5 -30 -11 0 -5 8 -9 18 -7 11 2 20 -1 20 -7 3 -19 -50 -10 -64 10 -27 41
39 88 74 53z m320 0 c22 -22 13 -38 -19 -38 -18 0 -28 -4 -24 -10 4 -6 14 -9
22 -8 9 2 18 -3 20 -9 6 -17 -49 -17 -65 -1 -28 28 -7 78 33 78 12 0 26 -5 33
-12z m530 -6 c3 -9 -3 -13 -14 -12 -34 4 -44 0 -44 -15 0 -15 10 -19 44 -15
11 1 17 -3 14 -12 -6 -17 -55 -23 -74 -7 -17 14 -18 51 -2 67 16 16 70 11 76
-6z m92 -1 c15 -29 13 -31 -21 -31 -18 0 -28 -4 -24 -10 4 -6 14 -9 22 -8 9 2
18 -3 20 -9 3 -9 -6 -13 -26 -13 -22 0 -35 7 -47 25 -16 24 -16 27 1 45 23 25
61 26 75 1z m108 -28 c2 -34 0 -43 -12 -43 -11 0 -16 10 -16 30 0 20 -5 30
-15 30 -10 0 -15 -10 -15 -30 0 -20 -5 -30 -15 -30 -11 0 -15 12 -15 46 l0 45
43 -3 c42 -3 42 -3 45 -45z m122 17 c0 -20 5 -30 15 -30 10 0 15 10 15 30 0
20 5 30 15 30 11 0 15 -12 15 -45 l0 -45 -40 0 c-45 0 -65 23 -54 65 9 36 34
32 34 -5z m175 3 l7 -28 14 28 c8 15 21 27 29 27 12 0 9 -12 -10 -57 -14 -31
-27 -59 -29 -61 -2 -2 -17 -2 -33 1 -27 4 -27 5 -5 12 26 9 26 6 5 49 -13 29
-19 33 -34 25 -11 -5 -18 -19 -16 -31 1 -14 -4 -23 -15 -26 -15 -3 -18 4 -18
42 l0 46 49 0 c45 0 49 -2 56 -27z m137 0 c4 -36 33 -38 33 -3 0 15 6 25 14
25 10 0 14 -12 14 -40 0 -38 -1 -40 -32 -43 -42 -4 -61 12 -61 54 0 42 27 47
32 7z m288 -18 c0 -33 -4 -45 -15 -45 -11 0 -15 12 -15 45 0 33 4 45 15 45 11
0 15 -12 15 -45z m188 33 c7 -7 12 -27 12 -45 0 -26 -4 -33 -20 -33 -16 0 -20
7 -20 30 0 20 -5 30 -15 30 -10 0 -15 -10 -15 -30 0 -20 -5 -30 -15 -30 -11 0
-15 12 -15 45 l0 45 38 0 c21 0 43 -5 50 -12z m113 -9 c17 -33 -3 -69 -39 -69
-33 0 -52 16 -52 45 0 29 19 45 52 45 18 0 31 -7 39 -21z m44 -6 l7 -28 10 28
c12 35 36 35 45 0 l6 -28 10 28 c11 34 42 38 31 5 -16 -54 -24 -68 -38 -68 -8
0 -18 10 -22 23 l-7 22 -10 -22 c-16 -36 -42 -28 -55 16 -15 49 -15 51 2 51 8
0 17 -12 21 -27z m222 7 c3 -11 9 -20 13 -20 4 0 10 9 13 20 8 29 35 25 44 -7
l6 -28 9 27 c8 24 13 26 60 25 47 -2 52 -5 61 -30 14 -43 3 -59 -40 -55 -30 2
-38 7 -38 23 0 13 8 21 23 23 32 5 27 21 -7 20 -23 -1 -31 -7 -38 -32 -11 -38
-40 -46 -53 -14 l-9 23 -7 -22 c-11 -39 -40 -28 -57 22 -14 40 -14 45 0 45 8
0 17 -9 20 -20z m253 -7 l13 -28 9 26 c8 23 15 27 55 27 57 2 73 -10 73 -55 0
-34 0 -34 -42 -31 -35 2 -43 7 -43 23 0 13 8 21 23 23 32 5 27 21 -7 20 -24
-1 -31 -8 -49 -49 -17 -41 -25 -49 -46 -49 -14 0 -26 5 -26 10 0 6 7 10 15 10
8 0 15 4 15 9 0 5 -7 25 -15 44 -18 44 -18 47 -2 47 8 0 20 -12 27 -27z m248
-20 c2 -34 0 -43 -12 -43 -11 0 -16 10 -16 30 0 20 -5 30 -15 30 -10 0 -15
-10 -15 -30 0 -20 -5 -30 -15 -30 -11 0 -15 12 -15 46 l0 45 43 -3 c42 -3 42
-3 45 -45z m119 8 c3 -61 -11 -81 -58 -81 -28 0 -39 4 -36 13 2 7 15 11 30 9
15 -2 27 1 27 7 0 6 -11 11 -24 11 -35 0 -52 25 -37 56 10 22 16 25 54 22 40
-3 42 -4 44 -37z m-701 -55 c-3 -14 -10 -26 -15 -26 -13 0 -19 48 -8 59 17 17
30 -4 23 -33z m2305 -38 c35 -40 64 -75 65 -77 3 -4 61 61 97 111 26 34 33 38
73 38 l44 0 0 -136 0 -135 -47 3 -48 3 -5 64 -5 65 -40 -52 c-52 -69 -74 -69
-137 0 l-47 53 -1 -68 0 -68 -47 3 -48 3 -3 133 -3 132 45 0 c42 0 46 -3 107
-72z m500 -3 c35 -41 66 -75 69 -74 3 0 32 34 64 75 57 72 61 74 103 74 l43 0
0 -136 0 -135 -47 3 -48 3 -5 65 -5 65 -40 -52 c-54 -71 -78 -71 -139 0 l-46
52 0 -68 0 -68 -47 3 -48 3 -3 133 -3 132 45 0 c43 0 46 -2 107 -75z m469 40
c19 -19 39 -35 44 -35 6 0 24 16 39 35 26 32 32 35 82 35 30 0 55 -4 55 -9 0
-4 -25 -31 -55 -58 -30 -28 -55 -55 -55 -59 0 -5 28 -38 61 -73 l61 -64 66 66
66 66 -62 63 -63 63 58 3 c56 3 59 2 89 -32 17 -20 35 -36 40 -36 5 0 22 16
37 35 26 33 31 35 90 35 l61 0 -64 -65 -64 -65 62 -63 c34 -34 62 -66 62 -70
0 -4 -25 -7 -56 -7 -53 0 -58 2 -93 42 l-38 42 -37 -42 -38 -42 -115 0 -115 0
-39 43 -38 42 -37 -42 c-35 -42 -37 -43 -97 -43 l-61 0 67 68 67 68 -60 59
c-33 33 -60 63 -60 67 0 4 24 8 53 8 48 0 57 -4 87 -35z m750 -100 l0 -135
-55 0 -55 0 0 135 0 135 55 0 55 0 0 -135z m170 0 l0 -135 -50 0 -50 0 0 135
0 135 50 0 50 0 0 -135z m-6805 15 c-5 -8 -11 -8 -17 -2 -6 6 -7 16 -3 22 5 8
11 8 17 2 6 -6 7 -16 3 -22z m670 12 c0 -18 -20 -15 -23 4 -3 10 1 15 10 12 7
-3 13 -10 13 -16z m511 7 c8 -14 -18 -31 -30 -19 -9 9 0 30 14 30 5 0 12 -5
16 -11z m1110 0 c10 -17 -13 -36 -27 -22 -12 12 -4 33 11 33 5 0 12 -5 16 -11z
m-3704 -23 c-2 -12 5 -16 26 -16 32 0 42 -14 42 -61 0 -19 -5 -29 -15 -29 -10
0 -15 10 -15 29 0 17 -5 33 -11 37 -14 8 -30 -15 -26 -41 1 -12 -5 -21 -15
-23 -16 -3 -18 5 -18 56 0 32 3 62 7 66 12 11 28 0 25 -18z m338 4 c0 -15 7
-20 25 -20 13 0 29 -8 35 -17 10 -17 10 -17 20 0 14 21 66 23 78 1 8 -14 10
-14 21 0 19 23 68 20 81 -3 15 -29 13 -31 -22 -31 -17 0 -28 -3 -24 -7 4 -4
13 -8 19 -8 25 0 21 -20 -5 -23 -17 -2 -34 4 -47 17 -12 12 -33 21 -48 21 -14
0 -23 -3 -19 -7 4 -4 13 -8 19 -8 7 0 13 -4 15 -10 5 -18 -39 -17 -58 0 -17
15 -21 16 -34 2 -9 -8 -31 -15 -51 -15 l-35 0 0 64 c0 50 3 64 15 64 8 0 15
-9 15 -20z m527 1 c3 -12 15 -21 32 -23 23 -3 26 -8 29 -45 2 -33 0 -43 -12
-43 -9 0 -16 12 -18 33 -2 17 -7 32 -13 32 -5 0 -11 -15 -13 -32 -3 -32 -30
-48 -34 -20 -4 33 -5 103 -1 110 8 14 25 7 30 -12z m443 -1 c0 -16 7 -20 30
-20 24 0 31 -5 36 -27 10 -39 -7 -58 -55 -60 l-41 -2 0 65 c0 50 3 64 15 64 8
0 15 -9 15 -20z m595 11 c3 -6 -3 -14 -12 -20 -10 -6 -12 -11 -5 -11 14 0 17
-30 2 -30 -5 0 -10 -13 -10 -30 0 -20 -5 -30 -15 -30 -10 0 -15 10 -15 30 0
17 -5 30 -11 30 -5 0 -8 -4 -5 -8 10 -16 -25 -52 -49 -52 -35 0 -60 41 -45 71
10 18 18 21 56 16 38 -4 45 -1 59 19 16 25 39 31 50 15z m135 -54 l0 -64 -35
-1 c-27 -1 -39 4 -51 23 -20 30 -4 65 30 65 15 0 26 7 29 20 11 44 27 19 27
-43z m1120 -2 c0 -64 0 -65 -27 -64 -46 2 -62 9 -68 29 -9 29 12 60 40 60 18
0 25 5 25 20 0 11 7 20 15 20 12 0 15 -14 15 -65z m150 2 l0 -64 -35 -1 c-27
-1 -39 4 -51 23 -20 30 -4 65 30 65 15 0 26 7 29 20 11 44 27 19 27 -43z m440
43 c0 -14 7 -20 24 -20 13 0 29 -7 37 -16 11 -14 13 -14 21 0 5 9 22 16 37 16
16 0 34 -7 42 -16 11 -14 13 -14 21 0 5 9 19 16 32 16 15 0 26 7 29 20 3 11
10 20 16 20 7 0 11 -24 11 -64 l0 -64 -36 0 c-24 0 -39 6 -47 19 -8 12 -23 19
-45 19 -18 0 -31 -4 -28 -9 3 -5 16 -7 27 -4 16 4 20 2 17 -8 -7 -23 -54 -23
-70 0 -14 19 -14 19 -26 1 -8 -13 -23 -19 -52 -18 l-40 0 0 64 c0 50 3 64 15
64 8 0 15 -9 15 -20z m360 0 c0 -14 7 -20 23 -20 29 0 47 -18 47 -46 0 -30
-18 -42 -62 -42 l-38 0 0 64 c0 50 3 64 15 64 8 0 15 -9 15 -20z m-3304 -14
c16 -17 19 -36 4 -36 -5 0 -10 -7 -10 -15 0 -8 5 -15 10 -15 6 0 10 -7 10 -16
0 -10 -7 -14 -22 -12 -16 2 -24 12 -30 38 -12 60 6 87 38 56z m870 -1 c12 -12
12 -18 2 -36 -10 -17 -10 -23 0 -26 22 -8 14 -35 -10 -31 -16 2 -24 12 -28 32
-4 26 -9 30 -40 30 -25 1 -35 -3 -35 -14 0 -9 9 -15 24 -15 33 -1 38 -23 8
-30 -26 -7 -67 9 -67 25 0 6 -14 10 -31 10 -17 0 -28 -4 -24 -10 3 -5 12 -7
19 -4 8 3 17 1 21 -5 9 -15 -20 -25 -50 -17 -29 7 -44 49 -25 71 16 20 69 19
77 0 5 -14 7 -14 23 0 11 10 32 15 56 13 23 -1 39 2 42 10 5 16 20 15 38 -3z
m3171 0 c12 -12 12 -19 3 -30 -7 -8 -10 -20 -8 -27 5 -14 68 -21 68 -7 0 5 -9
9 -19 9 -24 0 -33 13 -25 34 4 10 18 16 40 16 40 0 46 -20 7 -21 l-28 -1 28
-10 c15 -5 27 -13 27 -18 0 -4 9 -6 20 -3 15 4 20 0 20 -14 0 -18 -7 -19 -81
-19 -84 1 -89 3 -103 48 -8 28 -36 10 -36 -23 0 -19 -5 -29 -15 -29 -11 0 -15
12 -15 45 0 45 0 45 35 45 19 0 35 5 35 10 0 15 30 12 47 -5z m-4137 -55 c0
-51 -27 -57 -32 -7 -4 42 -22 41 -26 -1 -3 -25 -8 -32 -20 -30 -13 2 -17 14
-18 45 0 40 2 42 30 45 50 6 66 -7 66 -52z m2340 0 c0 -51 -27 -57 -32 -7 -2
17 -7 32 -13 32 -5 0 -11 -15 -13 -32 -5 -53 -32 -43 -32 11 0 41 2 45 28 48
45 6 62 -8 62 -52z m-2890 20 c11 -44 2 -58 -38 -56 -29 1 -38 5 -40 21 -2 15
5 24 25 32 l28 11 -27 1 c-16 1 -28 6 -28 12 0 6 16 9 37 7 30 -2 38 -8 43
-28z m90 20 c0 -5 -10 -10 -22 -11 l-23 0 21 -9 c30 -12 38 -28 24 -45 -17
-21 -70 -20 -70 1 0 11 6 14 20 9 11 -4 20 -2 20 4 0 6 -9 11 -20 11 -15 0
-20 7 -20 25 0 22 4 25 35 25 19 0 35 -4 35 -10z m778 -2 c22 -22 13 -38 -19
-38 -17 0 -28 -4 -24 -10 3 -5 12 -7 19 -4 8 3 17 1 21 -5 9 -15 -20 -25 -50
-17 -29 7 -44 49 -25 71 15 18 61 20 78 3z m132 2 c0 -5 -12 -10 -27 -11 l-28
-1 28 -10 c21 -7 27 -16 25 -32 -2 -16 -10 -21 -35 -21 -18 0 -32 5 -30 10 1
6 10 9 20 8 9 -2 17 2 17 7 0 6 -9 10 -19 10 -23 0 -35 15 -27 35 6 17 76 21
76 5z m42 -17 c2 -17 9 -28 18 -28 10 0 14 8 12 28 -2 21 1 27 18 27 17 0 20
-6 20 -44 l0 -44 -40 0 c-44 -1 -60 16 -60 62 0 36 28 34 32 -1z m216 -30 c-3
-51 -6 -58 -25 -61 -23 -3 -31 12 -13 23 6 3 10 26 10 51 0 33 4 44 15 44 13
0 15 -11 13 -57z m672 12 c0 -33 -4 -45 -15 -45 -11 0 -15 12 -15 45 0 33 4
45 15 45 11 0 15 -12 15 -45z m85 35 c-3 -5 -16 -10 -28 -11 -21 0 -21 -1 2
-10 19 -8 27 -6 38 11 17 24 73 25 81 1 3 -10 -2 -12 -22 -7 -15 4 -26 2 -26
-4 0 -5 0 -13 0 -17 0 -5 10 -8 23 -8 31 0 28 -29 -4 -33 -14 -2 -31 4 -39 13
-12 14 -14 14 -31 -1 -20 -18 -60 -16 -67 4 -3 9 3 11 22 6 16 -4 26 -2 26 5
0 6 -9 11 -19 11 -23 0 -35 15 -27 35 3 9 19 15 41 15 22 0 34 -4 30 -10z
m137 -17 c2 -17 9 -28 18 -28 10 0 14 8 12 28 -2 20 2 27 15 27 17 0 20 -13
14 -73 -1 -8 -15 -14 -36 -15 -38 -2 -55 17 -55 62 0 36 28 34 32 -1z m148 17
c0 -5 -10 -10 -22 -11 l-23 0 21 -9 c30 -12 38 -28 24 -45 -17 -21 -70 -20
-70 1 0 11 6 14 20 9 11 -4 20 -2 20 4 0 6 -9 11 -20 11 -15 0 -20 7 -20 25 0
22 4 25 35 25 19 0 35 -4 35 -10z m90 0 c0 -5 -12 -10 -27 -11 l-28 -1 28 -10
c35 -13 36 -45 2 -54 -29 -7 -59 2 -51 15 3 5 15 7 26 4 11 -3 20 0 20 6 0 6
-9 11 -19 11 -23 0 -35 15 -27 35 6 17 76 21 76 5z m40 -35 c0 -33 -4 -45 -15
-45 -11 0 -15 12 -15 45 0 33 4 45 15 45 11 0 15 -12 15 -45z m100 25 c22 -42
-13 -80 -60 -65 -25 8 -37 50 -20 70 19 22 67 19 80 -5z m108 -27 c2 -33 0
-43 -12 -43 -9 0 -16 12 -18 33 -2 17 -7 32 -13 32 -5 0 -11 -15 -13 -32 -2
-21 -9 -33 -18 -33 -10 0 -14 13 -14 46 l0 45 43 -3 c42 -3 42 -3 45 -45z
m140 1 c3 -40 2 -41 -30 -41 -61 -1 -76 29 -25 51 l32 14 -27 1 c-16 1 -28 6
-28 12 0 6 16 9 38 7 36 -3 37 -4 40 -44z m471 34 c11 -10 14 -10 18 0 5 14
73 17 73 2 0 -5 -10 -10 -22 -10 -23 0 -22 -1 2 -13 22 -11 26 -10 35 8 12 23
75 29 83 7 3 -9 -5 -12 -24 -10 -21 2 -29 -1 -29 -12 0 -9 9 -15 24 -15 31 0
39 -21 12 -30 -25 -8 -61 2 -61 17 0 6 -9 3 -19 -6 -20 -18 -74 -19 -69 -1 2
6 11 9 21 8 9 -2 17 2 17 7 0 6 -9 10 -20 10 -11 0 -20 6 -21 13 0 10 -2 10
-6 0 -2 -7 -19 -13 -35 -13 -17 0 -28 -3 -24 -7 4 -4 14 -8 22 -8 25 0 20 -20
-7 -23 -15 -2 -32 5 -44 18 -39 43 31 98 74 58z m299 -30 c-2 -30 -8 -43 -18
-43 -11 0 -15 11 -15 36 0 32 -2 35 -17 25 -10 -6 -18 -23 -18 -38 0 -18 -5
-28 -15 -28 -11 0 -15 12 -15 45 l0 45 51 0 50 0 -3 -42z m509 22 c3 -11 9
-20 13 -20 4 0 10 9 13 20 3 11 12 20 21 20 14 0 13 -7 -5 -52 -27 -69 -26
-68 -55 -68 -16 0 -24 5 -21 13 2 6 10 11 16 10 15 -4 14 11 -4 54 -18 44 -18
43 1 43 9 0 18 -9 21 -20z m193 1 c15 -29 13 -31 -21 -31 -17 0 -28 -4 -24
-10 3 -5 12 -7 19 -4 8 3 17 1 21 -5 9 -15 -20 -25 -50 -17 -29 7 -44 49 -25
71 18 22 67 19 80 -4z m46 8 c4 -8 9 -8 17 0 6 6 17 11 25 11 10 0 10 -4 -2
-22 -14 -20 -14 -24 1 -40 19 -22 9 -37 -15 -22 -12 8 -22 8 -34 0 -22 -14
-34 -1 -18 19 10 12 10 21 2 40 -9 20 -9 25 3 25 7 0 17 -5 21 -11z m154 -6
c10 -17 10 -17 20 0 13 20 60 23 78 5 22 -22 13 -38 -20 -38 -17 0 -28 -3 -24
-7 4 -4 14 -8 22 -8 22 0 17 -20 -6 -23 -12 -2 -30 4 -40 13 -18 16 -20 16
-36 0 -9 -9 -25 -14 -35 -12 -14 4 -19 0 -19 -14 0 -10 -7 -19 -15 -19 -12 0
-15 13 -15 60 l0 60 40 0 c26 0 42 -6 50 -17z m-707 -548 c38 -6 41 -12 31
-52 -6 -21 -10 -22 -65 -16 -42 4 -59 2 -59 -6 0 -13 5 -15 67 -31 84 -21 108
-86 54 -141 -36 -36 -109 -43 -188 -18 -38 12 -38 11 -17 50 12 25 19 29 37
22 31 -11 91 -10 95 2 2 5 -21 16 -50 23 -90 22 -123 87 -72 144 17 18 87 38
114 33 8 -2 32 -6 53 -10z m-406 -21 c41 -30 65 -82 59 -127 -11 -90 -77 -130
-208 -125 l-83 3 -3 124 c-1 69 0 131 3 139 9 24 196 12 232 -14z m723 -9 c0
-34 -1 -35 -40 -35 l-40 0 0 -105 0 -105 -50 0 -50 0 0 105 0 105 -40 0 c-39
0 -40 1 -40 35 l0 35 130 0 130 0 0 -35z m251 -3 c37 -41 39 -89 4 -130 l-24
-29 24 -36 c14 -20 25 -38 25 -41 0 -4 -21 -6 -47 -6 -44 0 -50 3 -71 35 -29
46 -52 46 -52 0 0 -35 0 -35 -45 -35 l-45 0 0 141 0 141 101 -4 c99 -4 102 -4
130 -36z m294 -10 c0 -23 2 -42 3 -42 2 0 22 21 45 46 40 43 44 45 90 42 l48
-3 -52 -58 -52 -58 19 -27 c11 -15 37 -51 58 -79 l38 -53 -54 0 c-53 0 -55 1
-88 46 -36 51 -55 48 -55 -9 0 -31 -1 -32 -47 -35 l-48 -3 0 141 0 141 48 -3
47 -3 0 -43z m-1085 -142 l0 -90 -45 0 -45 0 0 90 0 90 45 0 45 0 0 -90z m948
-3 l3 -88 -48 3 -48 3 -3 74 c-4 98 -1 103 50 99 l43 -3 3 -88z"/>
<path d="M25347 20312 c-43 -12 -56 -20 -53 -31 3 -9 14 -48 25 -87 l21 -71
68 18 c85 24 117 55 108 108 -7 43 -47 81 -84 80 -15 0 -53 -8 -85 -17z"/>
<path d="M27864 20318 c-46 -22 -58 -101 -21 -136 23 -22 144 -65 151 -53 7
12 46 143 46 155 0 13 -104 47 -137 45 -10 0 -28 -5 -39 -11z"/>
<path d="M26390 19804 c-388 -33 -630 -79 -930 -176 -568 -184 -1098 -511
-1554 -957 -212 -209 -435 -474 -549 -654 l-37 -57 0 -3195 0 -3195 1173 0
c644 0 1183 -3 1197 -6 l25 -6 -21 19 c-12 10 -27 28 -32 39 -15 28 -1 118 22
142 9 10 16 27 16 38 0 60 62 84 150 59 172 -48 186 -50 214 -31 20 12 26 25
26 52 0 24 5 36 18 40 9 3 25 10 35 15 12 6 24 5 41 -6 22 -15 27 -15 55 -1
17 9 38 29 46 44 9 15 13 18 9 7 -3 -11 -10 -37 -14 -57 -7 -35 -5 -39 67
-110 81 -80 102 -123 84 -171 -12 -30 -50 -50 -121 -64 -31 -7 32 -9 202 -9
135 1 244 4 241 9 -2 4 -10 7 -17 7 -15 0 -39 47 -31 60 3 5 7 29 10 55 2 26
11 55 19 64 9 10 16 28 16 40 0 33 43 71 81 71 17 0 68 -11 113 -24 162 -49
186 -45 186 28 0 53 21 77 45 52 19 -19 26 -20 58 -5 36 16 61 66 60 122 -1
41 -8 59 -48 116 -60 88 -69 138 -32 175 14 14 32 26 39 26 17 0 43 -158 60
-357 l11 -138 84 -80 c71 -69 83 -85 83 -113 0 -37 -34 -78 -72 -86 -12 -3
-41 -10 -63 -15 -34 -9 -29 -10 39 -6 43 3 648 5 1343 5 l1263 0 0 3193 0
3192 -78 116 c-169 249 -404 524 -618 721 -87 79 -294 243 -405 320 -514 356
-1172 597 -1849 678 -94 11 -573 21 -660 14z m-315 -1453 c-3 -6 -14 -10 -23
-10 -15 1 -15 2 1 6 9 2 17 9 17 15 0 6 3 9 6 5 3 -3 3 -10 -1 -16z m-57 2
c-10 -2 -26 -2 -35 0 -10 3 -2 5 17 5 19 0 27 -2 18 -5z m-71 -18 c-10 -7 -25
-22 -33 -32 -14 -17 -14 -16 -4 4 5 12 18 27 28 32 25 15 30 13 9 -4z m-360
-367 c-3 -8 -6 -5 -6 6 -1 11 2 17 5 13 3 -3 4 -12 1 -19z m10 -24 c-3 -3 -12
-4 -19 -1 -8 3 -5 6 6 6 11 1 17 -2 13 -5z m-69 -44 c-7 -10 -14 -17 -17 -15
-4 4 18 35 25 35 2 0 -1 -9 -8 -20z m834 4 c33 -8 129 -46 214 -85 84 -38 160
-69 169 -69 9 0 15 -7 13 -17 -2 -13 13 -20 67 -34 128 -34 234 -22 360 40 44
22 100 57 124 77 40 34 43 36 36 13 -13 -42 -70 -123 -118 -166 -49 -45 -112
-80 -192 -108 -54 -18 -252 -55 -297 -55 -16 0 -28 -4 -28 -9 0 -4 34 -11 77
-15 91 -7 155 -35 233 -100 122 -102 224 -113 289 -30 42 53 12 134 -50 134
-28 0 -55 -23 -45 -38 8 -14 -19 -33 -37 -26 -45 17 -21 84 36 98 77 20 148
-51 147 -146 -1 -49 -30 -143 -45 -143 -5 0 -24 -10 -42 -23 -17 -12 -47 -29
-65 -37 -18 -8 -27 -14 -20 -15 18 0 73 29 100 53 12 11 22 15 22 9 0 -15 -57
-58 -112 -82 l-45 -20 -89 26 c-49 14 -96 28 -104 31 -8 3 -19 5 -24 4 -5 -1
-6 8 -3 19 4 17 3 19 -8 10 -17 -14 -109 25 -258 109 -150 86 -217 130 -217
144 0 50 -96 153 -152 164 -29 6 -36 17 -18 28 6 3 10 24 10 45 0 30 -6 43
-31 64 -35 29 -55 32 -103 12 -40 -17 -75 -64 -83 -110 -5 -33 -7 -34 -32 -24
-14 5 -46 13 -71 17 -42 6 -45 8 -48 40 -8 80 68 182 161 215 56 20 204 20
279 0z m-142 -199 c16 -19 6 -45 -17 -45 -16 0 -16 1 1 13 16 12 17 14 1 27
-14 11 -19 10 -38 -8 -17 -18 -19 -26 -12 -48 10 -26 33 -41 135 -88 75 -34
107 -90 86 -153 -6 -19 -3 -25 21 -33 53 -20 75 -34 89 -62 36 -69 1 -130 -80
-141 -29 -4 -54 -3 -61 3 -7 6 -18 9 -25 8 -6 -2 -15 4 -19 12 -5 8 -13 25
-19 37 -9 17 -8 28 4 52 18 37 79 70 97 52 6 -6 19 -11 29 -11 26 0 55 -67 40
-91 -20 -31 -14 -45 10 -22 27 27 28 75 2 104 -31 35 -95 58 -145 52 -35 -4
-50 0 -71 17 -47 37 -30 111 25 109 21 0 22 0 2 -9 -12 -4 -27 -15 -34 -24
-31 -37 31 -95 86 -81 55 14 54 94 -3 144 -19 17 -40 31 -47 31 -7 0 -36 11
-65 25 -60 28 -89 73 -70 110 20 37 56 47 78 20z m-349 -233 c-5 -10 -46 -53
-91 -96 -74 -71 -84 -77 -112 -71 -68 15 -168 -42 -168 -96 0 -10 -2 -19 -4
-19 -2 0 -11 -3 -20 -6 -12 -5 -16 0 -16 17 0 64 89 139 189 159 95 20 135 38
181 85 48 49 56 54 41 27z m679 -285 c0 -2 -15 -16 -32 -33 l-33 -29 29 33
c28 30 36 37 36 29z m-82 -164 c14 -103 36 -219 72 -372 l22 -91 619 0 c674 0
659 1 689 -56 18 -33 18 -73 2 -279 -10 -132 -16 -164 -32 -185 -48 -61 -74
-124 -75 -188 -2 -59 -4 -63 -36 -85 -61 -41 -49 -126 24 -163 17 -9 47 -30
65 -47 28 -27 32 -38 32 -81 0 -60 9 -98 20 -91 5 3 11 1 14 -4 8 -13 47 -2
72 21 19 17 22 17 34 3 7 -9 29 -15 52 -15 l40 0 -7 -52 c-12 -97 -101 -209
-177 -225 -25 -5 -28 -10 -28 -49 0 -42 -1 -44 -31 -44 -68 0 -125 63 -116
129 2 20 20 71 38 112 45 98 47 172 6 241 -27 46 -80 88 -111 88 -14 0 -16 35
-18 353 l-3 352 -130 3 c-167 4 -247 -10 -343 -59 -190 -96 -374 -322 -498
-611 l-34 -80 0 -219 0 -220 -29 22 c-28 21 -31 21 -55 5 -32 -21 -33 -21 -40
9 -8 32 -61 65 -104 65 -44 0 -89 -27 -105 -62 -14 -32 -15 -33 -41 -13 -27
21 -34 19 -67 -16 l-29 -31 0 241 0 242 -54 67 c-65 81 -110 166 -132 253 -14
53 -16 93 -10 232 4 115 3 174 -5 188 -16 31 -92 60 -175 66 l-74 6 -2 -393
-3 -394 -29 -7 c-39 -11 -84 -55 -107 -104 -30 -64 -25 -132 17 -233 29 -70
35 -96 31 -132 -6 -57 -50 -100 -102 -100 -35 0 -35 0 -35 45 0 39 -3 45 -20
45 -31 0 -71 24 -111 67 -49 50 -67 90 -75 157 l-7 56 32 0 c17 0 40 5 51 12
15 10 22 9 37 -4 24 -20 61 -29 70 -16 4 7 11 4 20 -7 11 -16 13 -8 13 62 0
92 12 115 82 156 56 32 76 56 84 95 6 29 2 37 -35 72 -38 36 -41 43 -41 90 0
61 -17 105 -67 173 l-38 51 -8 197 c-8 172 -7 201 7 231 33 69 34 69 432 68
196 -1 358 0 360 3 3 2 5 44 5 93 0 106 -32 277 -66 348 -13 28 -23 51 -21 53
1 1 31 14 67 27 45 18 84 25 134 26 l71 0 12 -97z m-338 3 c0 -2 -12 -11 -27
-20 l-28 -17 24 20 c23 21 31 25 31 17z m-834 -54 c-17 -16 -18 -16 -5 5 7 12
15 20 18 17 3 -2 -3 -12 -13 -22z m144 -5 c0 -2 -19 -21 -42 -42 l-43 -40 40
43 c36 39 45 47 45 39z m595 -7 c-3 -5 -12 -10 -18 -10 -7 0 -6 4 3 10 19 12
23 12 15 0z m1532 -46 c-3 -3 -12 -4 -19 -1 -8 3 -5 6 6 6 11 1 17 -2 13 -5z
m-2250 -40 c-3 -3 -12 -4 -19 -1 -8 3 -5 6 6 6 11 1 17 -2 13 -5z m-1194
-1058 c33 -13 169 -120 175 -137 5 -12 -56 -89 -70 -89 -5 0 -28 16 -51 35
-81 70 -107 61 -209 -73 -135 -176 -202 -217 -358 -217 -74 0 -92 4 -140 29
-71 37 -92 55 -88 80 3 19 12 22 88 27 95 8 157 27 206 64 31 24 33 28 27 75
-6 48 -4 51 33 87 66 62 230 130 322 132 18 1 47 -5 65 -13z m5322 -96 c69
-25 100 -43 134 -77 41 -41 43 -45 39 -87 -6 -51 7 -69 79 -105 47 -23 171
-44 208 -35 17 4 26 0 34 -14 8 -15 5 -24 -17 -44 -63 -58 -101 -72 -203 -76
-164 -7 -215 22 -357 199 -69 86 -116 129 -140 129 -10 0 -42 -20 -72 -45
l-55 -46 -38 41 c-21 22 -37 46 -34 53 2 7 41 43 87 81 l84 68 81 -4 c57 -4
106 -15 170 -38z m-4854 -271 c46 -40 145 -122 219 -182 74 -61 141 -117 148
-124 7 -7 55 -46 105 -87 51 -40 160 -130 242 -199 167 -140 162 -139 164 -27
1 54 2 55 41 73 36 17 41 17 56 3 23 -24 77 -20 106 7 l25 23 7 -307 c8 -330
6 -343 -42 -355 -12 -4 -32 0 -45 9 -12 8 -130 120 -262 248 -363 351 -409
396 -688 653 l-257 238 42 48 c24 27 46 49 49 50 3 0 43 -32 90 -71z m1113
-116 c-2 -81 -6 -148 -7 -150 -5 -4 -70 93 -91 134 -9 18 -16 50 -16 71 0 63
60 123 102 101 15 -8 17 -25 12 -156z m2021 125 c29 -34 33 -89 11 -143 -11
-26 -93 -145 -100 -145 0 0 -1 70 -1 156 1 163 5 177 46 167 11 -3 30 -19 44
-35z m1143 -60 l43 -46 -158 -154 c-87 -84 -353 -348 -592 -585 -467 -466
-461 -461 -510 -409 -20 21 -22 31 -17 97 3 41 5 202 5 357 l1 284 31 -26 c34
-29 83 -34 109 -11 14 13 20 12 52 -3 20 -9 39 -26 42 -37 3 -11 6 -67 6 -123
l0 -104 97 84 c211 179 411 353 471 406 159 142 367 320 372 319 3 -1 25 -23
48 -49z m-2416 -268 c17 -13 27 -33 31 -60 9 -68 53 -96 114 -73 16 6 15 8 -6
13 -13 3 -33 18 -44 32 -17 22 -18 30 -7 43 18 22 30 19 27 -7 -2 -20 3 -23
31 -23 30 0 32 -2 32 -37 l0 -38 -62 -2 c-61 -1 -316 -1 -370 1 -18 1 -28 6
-28 16 0 12 4 13 19 5 32 -17 86 -12 105 9 10 11 20 38 23 61 7 47 40 80 83
80 15 0 39 -9 52 -20z m-192 -45 c10 -12 9 -20 -4 -40 -22 -33 -41 -40 -72
-27 -17 8 -24 20 -24 38 0 26 1 26 19 10 26 -24 57 -17 54 12 -3 25 9 29 27 7z
m155 -206 c-11 -35 3 -66 41 -88 20 -12 38 -29 41 -39 3 -14 16 -17 68 -17 49
0 70 -5 92 -21 58 -43 86 -109 67 -159 -16 -41 -118 -60 -146 -27 -30 34 -28
102 2 102 6 0 5 -9 -2 -20 -18 -28 1 -72 35 -84 37 -13 92 13 101 49 9 37 -20
94 -63 122 -25 17 -49 23 -87 23 -51 0 -54 -1 -70 -35 -9 -19 -19 -35 -23 -35
-3 0 -12 -4 -20 -9 -12 -8 -9 -15 12 -41 40 -47 36 -113 -9 -131 -50 -18 -106
29 -84 71 6 11 15 20 20 20 6 0 5 -9 -2 -20 -18 -28 1 -54 40 -58 89 -9 49
131 -43 152 -45 11 -75 34 -90 70 -12 29 -18 32 -45 28 -56 -8 -103 -105 -80
-163 23 -55 85 -67 119 -23 26 33 26 36 2 65 -18 21 -22 23 -41 11 -18 -11
-21 -11 -18 0 3 7 18 13 33 13 21 0 33 -7 45 -27 13 -25 13 -31 0 -55 -9 -15
-27 -34 -41 -42 -53 -30 -119 25 -119 100 0 32 37 109 52 109 20 0 5 17 -24
28 -17 6 -29 14 -26 18 4 3 15 1 26 -5 12 -6 41 -11 65 -11 50 0 83 26 74 60
-3 11 -1 20 4 20 15 0 10 -57 -6 -70 -54 -45 63 -143 129 -108 70 37 56 128
-19 128 -36 0 -55 -15 -55 -44 0 -17 -2 -18 -9 -7 -13 20 4 50 36 62 20 7 23
13 15 21 -13 13 -16 70 -5 81 12 12 14 7 8 -14z m80 -59 c3 -5 1 -10 -4 -10
-6 0 -11 5 -11 10 0 6 2 10 4 10 3 0 8 -4 11 -10z m-509 -156 c-1 -8 -13 -21
-27 -27 -29 -15 -41 -68 -33 -149 3 -32 3 -58 0 -58 -3 0 -12 12 -20 28 -8 15
-15 22 -16 17 0 -16 30 -56 39 -50 5 2 13 -7 20 -22 9 -20 9 -33 0 -54 -14
-36 -4 -91 21 -114 26 -24 25 -30 -5 -33 -33 -2 -69 -26 -83 -55 -38 -75 4
-160 94 -191 25 -8 63 -31 84 -50 64 -57 127 -57 228 1 l43 25 -22 -44 c-29
-56 -30 -118 -3 -154 30 -41 65 -63 102 -66 42 -3 53 -17 43 -54 -23 -86 63
-184 161 -184 46 0 58 -15 58 -72 0 -59 19 -99 62 -131 68 -51 165 -60 239
-22 17 9 40 15 50 12 11 -3 19 -2 19 3 0 4 -16 11 -36 14 -19 4 -37 13 -40 20
-3 8 -13 12 -22 10 -22 -4 -178 79 -175 94 2 6 -3 9 -10 7 -6 -3 -23 5 -37 17
-14 13 -48 42 -77 66 -95 79 -253 308 -253 367 0 8 -4 15 -9 15 -11 0 -52 150
-45 162 13 21 -9 27 -34 9 -70 -49 -116 -65 -187 -65 -79 0 -112 15 -145 69
-50 80 4 194 129 276 l24 15 -35 21 c-19 11 -46 36 -59 54 l-23 34 34 -26 c70
-52 169 -66 237 -33 38 19 38 19 82 -3 52 -27 97 -29 148 -8 20 8 37 14 39 12
2 -2 1 -20 -3 -40 -5 -33 -9 -37 -37 -38 -30 -2 -30 -2 -3 -6 19 -3 27 -10 27
-24 0 -23 3 -23 40 -4 37 19 64 10 55 -19 -16 -55 -16 -144 0 -206 26 -102 71
-177 155 -260 72 -72 174 -140 188 -125 4 4 7 64 6 133 0 99 -5 144 -22 205
-26 92 -80 202 -122 250 -16 19 -30 38 -30 42 0 5 3 5 6 2 4 -3 16 0 28 8 29
21 32 20 62 -30 27 -46 38 -58 27 -27 -9 22 -74 125 -84 132 -4 3 7 21 23 39
l31 35 24 -30 c115 -142 199 -333 248 -566 3 -15 5 -97 6 -182 l0 -154 25 -6
c34 -9 124 -98 124 -122 0 -26 -42 -65 -104 -98 -37 -19 -64 -26 -107 -26 -33
0 -59 -4 -59 -9 0 -20 64 -54 110 -59 63 -6 112 12 150 54 l30 35 0 -28 c-1
-69 -76 -162 -147 -179 -16 -4 -22 -12 -18 -23 6 -20 75 -467 75 -489 0 -12
-4 -11 -20 6 -12 12 -25 22 -30 22 -6 0 -10 20 -10 45 0 45 -30 124 -55 145
-10 8 -25 -2 -65 -42 -47 -49 -51 -56 -47 -91 4 -26 2 -37 -6 -34 -7 2 -27 69
-44 148 -78 346 -73 328 -96 335 -54 16 -243 117 -295 157 -52 41 -124 113
-211 213 l-35 39 -7 -30 c-3 -16 -7 -59 -8 -95 l-1 -66 39 4 c48 5 101 -21
101 -48 0 -41 -59 -58 -130 -39 -12 3 -15 -7 -13 -56 1 -33 4 -77 8 -97 5 -25
2 -47 -9 -69 -9 -18 -16 -52 -16 -76 l0 -43 38 0 c21 0 47 -6 57 -14 18 -13
18 -14 -6 -27 -13 -8 -37 -19 -54 -25 -27 -10 -31 -16 -37 -65 -3 -30 -7 -92
-7 -139 -2 -108 -10 -160 -27 -160 -21 0 -76 -52 -90 -87 -21 -49 -17 -88 16
-163 37 -85 37 -104 1 -141 -37 -37 -87 -40 -100 -6 -5 12 -23 31 -40 42 -46
29 -83 88 -89 140 -4 42 -3 45 20 45 13 0 29 5 34 10 8 8 20 5 42 -7 29 -17
31 -17 51 1 16 14 21 31 21 68 0 48 1 49 54 83 30 19 58 44 61 56 10 31 -3 68
-28 80 -19 9 -23 18 -23 59 0 37 -8 61 -34 103 l-33 56 -38 -42 c-20 -23 -39
-40 -42 -37 -3 3 -11 77 -18 165 -6 88 -16 165 -21 172 -5 7 -7 36 -3 67 4 30
4 72 1 93 -6 33 -11 39 -33 41 -94 8 -96 92 -2 92 30 0 31 1 25 31 -3 17 -6
52 -6 78 0 41 -4 48 -30 63 -38 22 -39 53 -2 72 25 13 27 18 24 58 -3 41 -6
44 -27 41 -26 -6 -55 28 -55 64 0 14 -15 32 -45 54 -86 62 -125 151 -125 287
0 69 4 95 21 127 27 52 64 91 101 106 26 11 28 15 21 43 -4 17 -8 65 -8 106 1
86 24 143 82 198 39 37 42 38 39 16z m1014 -154 c12 -16 19 -30 16 -30 -2 0
-14 14 -26 30 -12 17 -19 30 -16 30 2 0 14 -13 26 -30z m450 -340 c-8 -5 -19
-10 -25 -10 -5 0 -3 5 5 10 8 5 20 10 25 10 6 0 3 -5 -5 -10z m-1582 -505 c26
-7 44 -37 36 -59 -6 -15 -71 -42 -80 -33 -3 2 -7 28 -11 57 -7 57 -11 54 55
35z m44 -182 c35 -32 15 -153 -26 -153 -7 0 -18 24 -26 53 -7 28 -15 57 -17
63 -4 11 33 54 46 54 2 0 13 -7 23 -17z m588 -342 c0 -5 3 -18 7 -28 6 -16 5
-16 -10 -4 -19 15 -23 41 -7 41 6 0 10 -4 10 -9z m-24 -66 c29 -44 0 -145 -41
-145 -25 0 -50 41 -49 81 2 77 56 116 90 64z m24 -158 c0 -2 -11 -14 -25 -27
-27 -25 -35 -12 -9 14 14 14 34 22 34 13z m760 -456 c0 -22 -8 -34 -32 -50
-69 -43 -85 -121 -44 -218 33 -80 34 -126 1 -158 -29 -30 -75 -34 -75 -7 0 12
-15 25 -40 36 -47 21 -84 65 -99 121 -17 61 -14 75 12 75 13 0 28 5 33 10 8 8
21 5 43 -7 32 -18 32 -18 52 6 12 15 19 38 19 66 0 45 12 61 68 89 18 9 38 28
44 41 15 32 18 31 18 -4z m-982 -219 c1 -61 -1 -112 -6 -112 -4 0 -22 24 -40
53 -39 64 -43 121 -11 156 11 12 28 21 37 19 14 -3 17 -20 20 -116z m29 -224
c-2 -13 -4 -3 -4 22 0 25 2 35 4 23 2 -13 2 -33 0 -45z m-270 -50 c-3 -8 -6
-5 -6 6 -1 11 2 17 5 13 3 -3 4 -12 1 -19z m1000 0 c-3 -8 -6 -5 -6 6 -1 11 2
17 5 13 3 -3 4 -12 1 -19z"/>
<path d="M26183 17873 c9 -2 23 -2 30 0 6 3 -1 5 -18 5 -16 0 -22 -2 -12 -5z"/>
<path d="M26070 17845 c-14 -8 -20 -14 -15 -14 6 0 21 6 35 14 14 8 21 14 15
14 -5 0 -21 -6 -35 -14z"/>
<path d="M26295 17843 c17 -9 53 -38 82 -64 28 -27 55 -49 58 -49 9 0 -104
103 -129 117 -11 7 -25 12 -31 12 -5 0 4 -7 20 -16z"/>
<path d="M26168 17833 c6 -2 18 -2 25 0 6 3 1 5 -13 5 -14 0 -19 -2 -12 -5z"/>
<path d="M26118 17823 c7 -3 16 -2 19 1 4 3 -2 6 -13 5 -11 0 -14 -3 -6 -6z"/>
<path d="M26266 17806 c34 -16 72 -48 120 -101 38 -42 77 -81 87 -86 10 -6
-22 31 -70 81 -81 84 -143 130 -175 130 -7 0 10 -11 38 -24z"/>
<path d="M26440 17820 c-8 -5 -12 -11 -10 -14 3 -2 14 2 24 10 22 15 10 19
-14 4z"/>
<path d="M26503 17807 c12 -13 24 -22 26 -20 6 4 -30 43 -40 43 -5 0 2 -10 14
-23z"/>
<path d="M26039 17788 c-23 -18 -44 -40 -47 -48 -2 -8 13 1 34 21 22 20 48 41
59 47 11 6 15 12 8 12 -6 0 -31 -15 -54 -32z"/>
<path d="M26092 17763 c-7 -2 -17 -14 -23 -26 -11 -21 -10 -20 15 2 14 14 26
26 26 28 0 3 0 3 -18 -4z"/>
<path d="M26516 17743 c-6 -14 -5 -15 5 -6 7 7 10 15 7 18 -3 3 -9 -2 -12 -12z"/>
<path d="M26623 17743 c9 -2 25 -2 35 0 9 3 1 5 -18 5 -19 0 -27 -2 -17 -5z"/>
<path d="M26580 17725 c-7 -9 -11 -17 -9 -20 3 -2 10 5 17 15 14 24 10 26 -8
5z"/>
<path d="M26703 17716 c23 -21 28 -33 25 -64 -3 -31 -9 -40 -38 -54 -19 -10
-27 -18 -18 -18 9 0 29 11 45 24 15 12 35 26 43 29 12 4 11 6 -2 6 -11 1 -18
9 -18 22 0 29 -17 57 -43 70 -18 10 -17 7 6 -15z"/>
<path d="M26463 17723 c9 -2 23 -2 30 0 6 3 -1 5 -18 5 -16 0 -22 -2 -12 -5z"/>
<path d="M27188 17708 c7 -7 12 -21 12 -32 0 -10 3 -17 6 -13 10 10 -5 57 -18
57 -9 0 -9 -3 0 -12z"/>
<path d="M26666 17697 c3 -10 9 -15 12 -12 3 3 0 11 -7 18 -10 9 -11 8 -5 -6z"/>
<path d="M27090 17681 c0 -5 5 -13 10 -16 6 -3 10 -2 10 4 0 5 -4 13 -10 16
-5 3 -10 2 -10 -4z"/>
<path d="M26340 17677 c0 -18 30 -65 47 -71 15 -6 14 -3 -3 16 -12 13 -26 32
-32 43 -6 11 -12 16 -12 12z"/>
<path d="M26818 17673 c7 -3 16 -2 19 1 4 3 -2 6 -13 5 -11 0 -14 -3 -6 -6z"/>
<path d="M27152 17655 c0 -16 2 -22 5 -12 2 9 2 23 0 30 -3 6 -5 -1 -5 -18z"/>
<path d="M26570 17660 c0 -5 5 -10 11 -10 5 0 7 5 4 10 -3 6 -8 10 -11 10 -2
0 -4 -4 -4 -10z"/>
<path d="M26681 17658 c-1 -9 -11 -24 -23 -32 -12 -9 -18 -16 -12 -16 17 0 47
38 41 52 -4 9 -6 7 -6 -4z"/>
<path d="M26857 17659 c7 -7 15 -10 18 -7 3 3 -2 9 -12 12 -14 6 -15 5 -6 -5z"/>
<path d="M27036 17657 c3 -10 9 -15 12 -12 3 3 0 11 -7 18 -10 9 -11 8 -5 -6z"/>
<path d="M26301 17644 c0 -11 3 -14 6 -6 3 7 2 16 -1 19 -3 4 -6 -2 -5 -13z"/>
<path d="M26864 17605 c81 -43 124 -45 163 -9 l28 26 -29 -21 c-41 -30 -91
-27 -151 9 -27 16 -56 30 -63 30 -8 0 16 -16 52 -35z"/>
<path d="M26507 17599 c7 -7 15 -10 18 -7 3 3 -2 9 -12 12 -14 6 -15 5 -6 -5z"/>
<path d="M26418 17593 c7 -3 16 -2 19 1 4 3 -2 6 -13 5 -11 0 -14 -3 -6 -6z"/>
<path d="M26595 17573 c29 -7 46 -24 61 -58 7 -16 13 -24 14 -16 0 8 -10 30
-22 48 -16 23 -30 33 -48 32 -21 -1 -22 -2 -5 -6z"/>
<path d="M26458 17553 c12 -2 30 -2 40 0 9 3 -1 5 -23 4 -22 0 -30 -2 -17 -4z"/>
<path d="M26533 17553 c9 -2 23 -2 30 0 6 3 -1 5 -18 5 -16 0 -22 -2 -12 -5z"/>
<path d="M26595 17538 c11 -6 25 -19 32 -27 8 -10 12 -11 13 -4 0 13 -38 43
-55 43 -5 0 -1 -6 10 -12z"/>
<path d="M26498 17529 c-10 -5 -23 -20 -28 -32 -10 -20 -10 -21 4 -4 8 10 23
25 33 32 21 17 16 19 -9 4z"/>
<path d="M26510 17500 c-11 -11 -20 -28 -19 -37 0 -12 4 -9 10 8 5 15 20 31
32 37 12 6 16 11 10 11 -7 1 -22 -8 -33 -19z"/>
<path d="M26544 17486 c-10 -8 -17 -16 -14 -19 3 -2 14 4 24 14 23 22 18 25
-10 5z"/>
<path d="M26642 17465 c0 -16 2 -22 5 -12 2 9 2 23 0 30 -3 6 -5 -1 -5 -18z"/>
<path d="M26799 17443 c-12 -16 -12 -17 1 -7 8 7 24 14 35 17 19 4 19 5 -1 6
-12 0 -28 -7 -35 -16z"/>
<path d="M26860 17446 c0 -2 8 -10 18 -17 15 -13 16 -12 3 4 -13 16 -21 21
-21 13z"/>
<path d="M26672 17420 c0 -14 2 -19 5 -12 2 6 2 18 0 25 -3 6 -5 1 -5 -13z"/>
<path d="M26549 17411 c13 -12 28 -21 34 -21 12 0 11 0 -28 24 l-30 17 24 -20z"/>
<path d="M26616 17415 c-11 -8 -15 -15 -9 -15 6 0 16 7 23 15 16 19 11 19 -14
0z"/>
<path d="M26891 17394 c0 -11 3 -14 6 -6 3 7 2 16 -1 19 -3 4 -6 -2 -5 -13z"/>
<path d="M26689 17372 c15 -28 68 -62 98 -62 12 0 24 -8 26 -17 3 -13 5 -14 6
-3 1 8 16 24 33 35 17 11 33 27 35 35 3 10 1 9 -7 -3 -12 -19 -60 -46 -75 -42
-5 2 -23 6 -39 10 -16 3 -43 21 -59 38 -22 24 -27 26 -18 9z"/>
<path d="M26931 17371 c0 -14 -13 -38 -28 -54 -25 -26 -25 -28 -6 -18 29 15
45 46 40 74 -4 20 -4 20 -6 -2z"/>
<path d="M26826 17364 c-11 -8 -16 -14 -10 -14 13 0 39 18 34 24 -3 2 -14 -2
-24 -10z"/>
<path d="M27269 17264 l-24 -27 28 18 c15 9 27 21 27 26 0 14 -5 11 -31 -17z"/>
<path d="M26938 17273 c7 -3 16 -2 19 1 4 3 -2 6 -13 5 -11 0 -14 -3 -6 -6z"/>
<path d="M26983 17273 c9 -2 23 -2 30 0 6 3 -1 5 -18 5 -16 0 -22 -2 -12 -5z"/>
<path d="M26820 17263 c0 -19 42 -43 75 -42 28 1 27 2 -8 9 -21 4 -44 16 -52
26 -8 10 -15 14 -15 7z"/>
<path d="M26950 17233 c35 -7 52 -23 47 -45 -3 -10 -1 -16 4 -12 28 17 -9 65
-49 63 l-27 -2 25 -4z"/>
<path d="M27220 17230 c-9 -6 -10 -10 -3 -10 6 0 15 5 18 10 8 12 4 12 -15 0z"/>
<path d="M27048 17203 c6 -2 18 -2 25 0 6 3 1 5 -13 5 -14 0 -19 -2 -12 -5z"/>
<path d="M27148 17203 c7 -3 16 -2 19 1 4 3 -2 6 -13 5 -11 0 -14 -3 -6 -6z"/>
<path d="M27148 17143 c7 -3 16 -2 19 1 4 3 -2 6 -13 5 -11 0 -14 -3 -6 -6z"/>
<path d="M26346 17255 c-3 -9 1 -18 10 -22 19 -7 39 11 30 26 -10 16 -33 13
-40 -4z"/>
<path d="M26151 16363 c7 -12 15 -20 18 -17 3 2 -3 12 -13 22 -17 16 -18 16
-5 -5z"/>
<path d="M26303 16364 c-3 -8 2 -23 11 -32 10 -10 16 -12 16 -4 0 7 -4 12 -10
12 -5 0 -10 7 -10 15 0 18 31 20 48 3 9 -9 17 -9 34 -1 13 7 30 14 38 16 12 4
11 6 -3 6 -9 1 -26 -5 -37 -11 -15 -10 -22 -10 -32 0 -17 17 -47 15 -55 -4z"/>
<path d="M26590 16365 c-7 -9 -11 -17 -9 -20 3 -2 10 5 17 15 14 24 10 26 -8
5z"/>
<path d="M26089 16353 c-13 -16 -12 -17 4 -4 16 13 21 21 13 21 -2 0 -10 -8
-17 -17z"/>
<path d="M26640 16366 c0 -2 8 -10 18 -17 15 -13 16 -12 3 4 -13 16 -21 21
-21 13z"/>
<path d="M26431 16343 c-7 -8 -11 -16 -8 -19 2 -2 10 2 17 11 17 20 9 27 -9 8z"/>
<path d="M26250 16311 c0 -6 4 -13 10 -16 6 -3 7 1 4 9 -7 18 -14 21 -14 7z"/>
<path d="M26296 16302 c-3 -5 1 -9 9 -9 8 0 15 4 15 9 0 4 -4 8 -9 8 -6 0 -12
-4 -15 -8z"/>
<path d="M26360 16300 c0 -5 5 -10 10 -10 6 0 10 5 10 10 0 6 -4 10 -10 10 -5
0 -10 -4 -10 -10z"/>
<path d="M26426 16294 c-5 -13 -4 -14 7 -6 8 7 18 8 22 4 5 -4 5 -1 1 6 -10
17 -23 15 -30 -4z"/>
<path d="M26340 16244 c0 -8 5 -12 10 -9 6 3 10 10 10 16 0 5 -4 9 -10 9 -5 0
-10 -7 -10 -16z"/>
<path d="M26390 16253 c0 -6 8 -17 18 -24 16 -13 16 -13 2 6 -8 11 -16 22 -17
24 -2 2 -3 0 -3 -6z"/>
<path d="M25367 15359 c7 -7 15 -10 18 -7 3 3 -2 9 -12 12 -14 6 -15 5 -6 -5z"/>
<path d="M25315 15349 c-11 -16 -1 -19 13 -3 7 8 8 14 3 14 -5 0 -13 -5 -16
-11z"/>
<path d="M27922 15321 c2 -8 15 -21 29 -30 19 -11 21 -12 9 0 -8 8 -21 21 -29
29 -11 12 -12 12 -9 1z"/>
<path d="M28023 15293 c-10 -34 -10 -36 3 -19 12 17 20 56 11 56 -1 0 -7 -17
-14 -37z"/>
<path d="M25390 15299 c-22 -18 -22 -19 -3 -10 12 6 25 16 28 21 9 15 3 12
-25 -11z"/>
<path d="M25478 15304 c-14 -21 -21 -114 -9 -114 6 0 14 6 17 14 8 20 0 113
-8 100z"/>
<path d="M27900 15304 c0 -5 7 -18 15 -28 8 -11 15 -16 15 -10 0 5 -7 18 -15
28 -8 11 -15 16 -15 10z"/>
<path d="M25420 15280 c-6 -11 -8 -20 -6 -20 3 0 10 9 16 20 6 11 8 20 6 20
-3 0 -10 -9 -16 -20z"/>
<path d="M25316 15276 c3 -8 13 -17 21 -20 25 -10 23 -3 -3 17 -18 13 -22 14
-18 3z"/>
<path d="M27861 15238 c-1 -27 3 -48 8 -48 17 0 21 31 7 63 l-14 32 -1 -47z"/>
<path d="M27932 15215 c0 -16 2 -22 5 -12 2 9 2 23 0 30 -3 6 -5 -1 -5 -18z"/>
<path d="M25496 15194 c-6 -15 -4 -15 10 -3 14 11 18 10 31 -6 15 -20 15 -20
11 0 -4 25 -43 32 -52 9z"/>
<path d="M27797 15203 c-4 -3 -7 -13 -7 -22 0 -11 3 -11 14 4 12 17 16 17 30
6 14 -12 16 -12 10 3 -6 16 -35 22 -47 9z"/>
<path d="M25410 15183 c0 -5 10 -18 23 -29 l22 -19 -20 25 c-11 14 -21 27 -22
29 -2 2 -3 0 -3 -6z"/>
<path d="M27904 15158 l-19 -23 23 19 c21 18 27 26 19 26 -2 0 -12 -10 -23
-22z"/>
<path d="M25882 14515 c0 -16 2 -22 5 -12 2 9 2 23 0 30 -3 6 -5 -1 -5 -18z"/>
<path d="M25919 14363 c-13 -16 -12 -17 4 -4 16 13 21 21 13 21 -2 0 -10 -8
-17 -17z"/>
<path d="M25891 14294 c0 -11 3 -14 6 -6 3 7 2 16 -1 19 -3 4 -6 -2 -5 -13z"/>
<path d="M26230 14306 c0 -2 7 -7 16 -10 8 -3 12 -2 9 4 -6 10 -25 14 -25 6z"/>
<path d="M26437 14289 c12 -12 24 -21 27 -18 2 2 -8 13 -22 23 l-27 19 22 -24z"/>
<path d="M26344 14278 l-19 -23 23 19 c21 18 27 26 19 26 -2 0 -12 -10 -23
-22z"/>
<path d="M26400 14296 c0 -2 8 -10 18 -17 15 -13 16 -12 3 4 -13 16 -21 21
-21 13z"/>
<path d="M26375 14250 c4 -6 11 -8 16 -5 14 9 11 15 -7 15 -8 0 -12 -5 -9 -10z"/>
<path d="M25862 14190 c-33 -20 -72 -74 -72 -100 0 -8 10 6 23 30 14 30 36 53
62 67 22 13 36 23 30 23 -5 0 -25 -9 -43 -20z"/>
<path d="M26532 14180 c0 -19 2 -27 5 -17 2 9 2 25 0 35 -3 9 -5 1 -5 -18z"/>
<path d="M26210 14169 c0 -5 5 -7 10 -4 6 3 10 8 10 11 0 2 -4 4 -10 4 -5 0
-10 -5 -10 -11z"/>
<path d="M26931 14173 c0 -5 14 -35 30 -68 16 -33 27 -51 23 -40 -25 78 -40
115 -46 115 -5 0 -8 -3 -7 -7z"/>
<path d="M26539 14088 c4 -28 6 -29 9 -9 2 13 0 27 -5 32 -6 6 -7 -3 -4 -23z"/>
<path d="M26130 14100 c0 -5 5 -10 10 -10 6 0 10 5 10 10 0 6 -4 10 -10 10 -5
0 -10 -4 -10 -10z"/>
<path d="M26551 14034 c0 -11 3 -14 6 -6 3 7 2 16 -1 19 -3 4 -6 -2 -5 -13z"/>
<path d="M26230 14010 c0 -5 5 -10 11 -10 5 0 7 5 4 10 -3 6 -8 10 -11 10 -2
0 -4 -4 -4 -10z"/>
<path d="M27001 14000 c0 -8 8 -46 19 -85 15 -53 18 -59 14 -25 -7 50 -32 133
-33 110z"/>
<path d="M25800 13981 c0 -6 4 -13 10 -16 6 -3 7 1 4 9 -7 18 -14 21 -14 7z"/>
<path d="M25826 13939 c6 -11 64 -42 69 -37 2 2 -14 13 -36 25 -21 12 -37 17
-33 12z"/>
<path d="M26584 13918 c9 -12 16 -30 16 -40 0 -10 5 -18 10 -18 6 0 4 15 -5
36 -8 20 -15 38 -15 40 0 2 -5 4 -11 4 -5 0 -3 -10 5 -22z"/>
<path d="M26385 13910 c3 -5 8 -10 11 -10 2 0 4 5 4 10 0 6 -5 10 -11 10 -5 0
-7 -4 -4 -10z"/>
<path d="M26540 13899 c0 -5 5 -7 10 -4 6 3 10 8 10 11 0 2 -4 4 -10 4 -5 0
-10 -5 -10 -11z"/>
<path d="M25938 13893 c12 -2 30 -2 40 0 9 3 -1 5 -23 4 -22 0 -30 -2 -17 -4z"/>
<path d="M26000 13871 c0 -10 39 -46 43 -40 2 2 -7 14 -20 26 -13 12 -23 19
-23 14z"/>
<path d="M26200 13850 c-19 -11 -31 -19 -27 -20 11 0 67 29 67 35 0 7 -1 7
-40 -15z"/>
<path d="M26631 13830 c38 -82 139 -198 224 -260 17 -12 -2 9 -42 47 -60 58
-127 138 -181 219 -10 16 -11 15 -1 -6z"/>
<path d="M26083 13823 c15 -2 37 -2 50 0 12 2 0 4 -28 4 -27 0 -38 -2 -22 -4z"/>
<path d="M27042 13800 c0 -14 2 -19 5 -12 2 6 2 18 0 25 -3 6 -5 1 -5 -13z"/>
<path d="M26251 13764 c0 -11 3 -14 6 -6 3 7 2 16 -1 19 -3 4 -6 -2 -5 -13z"/>
<path d="M26260 13737 c0 -16 34 -58 54 -68 l21 -10 -20 18 c-11 10 -28 29
-38 43 -9 13 -17 21 -17 17z"/>
<path d="M27053 13680 c0 -30 2 -43 4 -27 2 15 2 39 0 55 -2 15 -4 2 -4 -28z"/>
<path d="M25940 13689 c0 -5 5 -7 10 -4 6 3 10 8 10 11 0 2 -4 4 -10 4 -5 0
-10 -5 -10 -11z"/>
<path d="M27053 13585 c0 -22 2 -30 4 -17 2 12 2 30 0 40 -3 9 -5 -1 -4 -23z"/>
<path d="M26372 13535 c0 -16 2 -22 5 -12 2 9 2 23 0 30 -3 6 -5 -1 -5 -18z"/>
<path d="M26705 13540 c-3 -5 -1 -10 4 -10 6 0 11 5 11 10 0 6 -2 10 -4 10 -3
0 -8 -4 -11 -10z"/>
<path d="M26910 13530 c14 -11 43 -29 64 -40 79 -39 52 -16 -39 34 -38 21 -44
22 -25 6z"/>
<path d="M25960 13530 c0 -5 5 -10 10 -10 6 0 10 5 10 10 0 6 -4 10 -10 10 -5
0 -10 -4 -10 -10z"/>
<path d="M27046 13519 c-11 -36 -13 -59 -6 -64 4 -3 10 12 12 33 5 38 2 55 -6
31z"/>
<path d="M26428 13423 c13 -13 28 -23 35 -23 7 0 3 6 -8 12 -11 6 -27 16 -35
22 -9 6 -5 1 8 -11z"/>
<path d="M26493 13393 c9 -2 23 -2 30 0 6 3 -1 5 -18 5 -16 0 -22 -2 -12 -5z"/>
<path d="M26593 13345 c0 -22 2 -30 4 -17 2 12 2 30 0 40 -3 9 -5 -1 -4 -23z"/>
<path d="M27235 13320 c-3 -5 -1 -10 4 -10 6 0 11 5 11 10 0 6 -2 10 -4 10 -3
0 -8 -4 -11 -10z"/>
<path d="M25930 13280 c0 -5 5 -10 10 -10 6 0 10 5 10 10 0 6 -4 10 -10 10 -5
0 -10 -4 -10 -10z"/>
<path d="M26601 13280 c0 -8 4 -22 9 -30 12 -18 12 -2 0 25 -6 13 -9 15 -9 5z"/>
<path d="M26320 13244 c0 -8 5 -12 10 -9 6 4 8 11 5 16 -9 14 -15 11 -15 -7z"/>
<path d="M26630 13210 c6 -11 13 -20 16 -20 2 0 0 9 -6 20 -6 11 -13 20 -16
20 -2 0 0 -9 6 -20z"/>
<path d="M26990 13149 c-24 -16 -40 -29 -35 -29 6 0 30 14 55 30 25 16 41 30
35 29 -5 0 -30 -14 -55 -30z"/>
<path d="M27060 13166 c0 -2 8 -10 18 -17 15 -13 16 -12 3 4 -13 16 -21 21
-21 13z"/>
<path d="M27284 13144 c-18 -14 -18 -15 4 -4 12 6 22 13 22 15 0 8 -5 6 -26
-11z"/>
<path d="M27168 13113 c12 -2 32 -2 45 0 12 2 2 4 -23 4 -25 0 -35 -2 -22 -4z"/>
<path d="M26878 13103 c6 -2 18 -2 25 0 6 3 1 5 -13 5 -14 0 -19 -2 -12 -5z"/>
<path d="M26130 12119 c0 -5 5 -7 10 -4 6 4 18 1 26 -6 12 -10 13 -9 8 5 -7
18 -44 22 -44 5z"/>
<path d="M25860 13620 c0 -5 5 -10 10 -10 6 0 10 5 10 10 0 6 -4 10 -10 10 -5
0 -10 -4 -10 -10z"/>
<path d="M25880 13460 c0 -5 5 -10 10 -10 6 0 10 5 10 10 0 6 -4 10 -10 10 -5
0 -10 -4 -10 -10z"/>
<path d="M26435 13060 c3 -5 8 -10 11 -10 2 0 4 5 4 10 0 6 -5 10 -11 10 -5 0
-7 -4 -4 -10z"/>
<path d="M27143 12123 c13 -3 17 -11 14 -24 -3 -10 -1 -17 4 -13 5 3 9 14 9
25 0 13 -6 19 -22 18 -19 -1 -20 -2 -5 -6z"/>
<path d="M25933 11586 c-51 -7 -94 -14 -97 -16 -2 -3 92 -6 210 -6 118 -1 213
0 210 3 -2 2 -48 8 -102 14 -54 5 -105 10 -113 12 -9 2 -57 -1 -108 -7z"/>
<path d="M26985 11587 c-145 -16 -119 -22 100 -23 118 -1 214 1 211 3 -2 2
-46 8 -97 13 -52 6 -103 11 -114 13 -11 2 -56 -1 -100 -6z"/>
<path d="M15975 17470 c3 -5 8 -10 11 -10 2 0 4 5 4 10 0 6 -5 10 -11 10 -5 0
-7 -4 -4 -10z"/>
<path d="M15480 16985 c0 -43 1 -45 28 -45 33 0 52 16 52 45 0 29 -19 45 -52
45 -27 0 -28 -2 -28 -45z"/>
<path d="M16274 17008 c3 -25 23 -33 45 -19 21 14 5 41 -24 41 -20 0 -24 -4
-21 -22z"/>
<path d="M30430 16536 c0 -42 3 -76 8 -76 10 0 165 62 175 70 4 4 -30 21 -75
39 -46 18 -89 35 -95 38 -10 4 -13 -14 -13 -71z"/>
<path d="M22807 16573 c-49 -20 -85 -39 -80 -44 11 -11 164 -70 172 -67 3 2 4
35 1 75 l-5 71 -88 -35z"/>
<path d="M22764 13771 c-55 -25 -87 -71 -92 -136 -9 -107 59 -175 175 -175
113 0 177 65 170 173 -4 69 -26 103 -87 135 -54 27 -111 28 -166 3z"/>
<path d="M30410 13768 c-25 -13 -55 -39 -68 -58 -20 -30 -23 -45 -20 -97 7
-105 61 -153 174 -153 67 0 109 21 148 73 26 35 28 127 3 174 -39 73 -156 103
-237 61z"/>
<path d="M22792 13031 c-38 -10 -77 -43 -98 -83 -9 -17 -14 -59 -14 -113 l0
-85 163 0 c90 0 166 2 168 4 2 2 2 45 -1 94 -4 71 -10 97 -26 119 -41 55 -121
81 -192 64z"/>
<path d="M30445 13031 c-82 -20 -115 -73 -123 -198 l-5 -83 173 0 172 0 -4 94
c-2 77 -7 100 -24 123 -40 53 -121 81 -189 64z"/>
<path d="M26817 10573 c-13 -12 -7 -33 8 -33 8 0 15 9 15 20 0 20 -11 26 -23
13z"/>
<path d="M26380 10560 c0 -11 7 -20 15 -20 8 0 15 9 15 20 0 11 -7 20 -15 20
-8 0 -15 -9 -15 -20z"/>
<path d="M23500 10540 c0 -5 4 -10 9 -10 6 0 13 5 16 10 3 6 -1 10 -9 10 -9 0
-16 -4 -16 -10z"/>
<path d="M23657 10573 c-13 -12 -7 -33 8 -33 8 0 15 9 15 20 0 20 -11 26 -23
13z"/>
<path d="M23758 10573 c7 -3 16 -2 19 1 4 3 -2 6 -13 5 -11 0 -14 -3 -6 -6z"/>
<path d="M25288 10573 c7 -3 16 -2 19 1 4 3 -2 6 -13 5 -11 0 -14 -3 -6 -6z"/>
<path d="M22780 10540 c0 -5 5 -10 10 -10 6 0 10 5 10 10 0 6 -4 10 -10 10 -5
0 -10 -4 -10 -10z"/>
<path d="M22970 10540 c0 -5 5 -10 10 -10 6 0 10 5 10 10 0 6 -4 10 -10 10 -5
0 -10 -4 -10 -10z"/>
<path d="M23185 10570 c-11 -17 5 -32 21 -19 7 6 11 15 8 20 -7 12 -21 11 -29
-1z"/>
<path d="M23987 10573 c-13 -12 -7 -33 8 -33 8 0 15 9 15 20 0 20 -11 26 -23
13z"/>
<path d="M24474 10569 c-10 -17 13 -36 27 -22 12 12 4 33 -11 33 -5 0 -12 -5
-16 -11z"/>
<path d="M24630 10540 c0 -5 5 -10 10 -10 6 0 10 5 10 10 0 6 -4 10 -10 10 -5
0 -10 -4 -10 -10z"/>
<path d="M25485 10571 c-8 -15 3 -31 21 -31 9 0 14 7 12 17 -4 20 -24 28 -33
14z"/>
<path d="M25865 10571 c-8 -15 3 -31 21 -31 9 0 14 7 12 17 -4 20 -24 28 -33
14z"/>
<path d="M26070 10540 c0 -5 5 -10 10 -10 6 0 10 5 10 10 0 6 -4 10 -10 10 -5
0 -10 -4 -10 -10z"/>
<path d="M26620 10540 c0 -5 4 -10 9 -10 6 0 13 5 16 10 3 6 -1 10 -9 10 -9 0
-16 -4 -16 -10z"/>
<path d="M26980 10540 c0 -5 5 -10 10 -10 6 0 10 5 10 10 0 6 -4 10 -10 10 -5
0 -10 -4 -10 -10z"/>
<path d="M27240 10540 c0 -5 5 -10 10 -10 6 0 10 5 10 10 0 6 -4 10 -10 10 -5
0 -10 -4 -10 -10z"/>
<path d="M24886 10365 c-3 -9 1 -18 10 -22 19 -7 28 2 21 22 -8 19 -23 19 -31
0z"/>
<path d="M25546 10365 c-3 -9 1 -18 10 -22 19 -7 28 2 21 22 -8 19 -23 19 -31
0z"/>
<path d="M23147 10374 c-14 -14 -7 -35 11 -32 9 2 17 10 17 17 0 16 -18 25
-28 15z"/>
<path d="M23258 10373 c7 -3 16 -2 19 1 4 3 -2 6 -13 5 -11 0 -14 -3 -6 -6z"/>
<path d="M22818 10373 c7 -3 16 -2 19 1 4 3 -2 6 -13 5 -11 0 -14 -3 -6 -6z"/>
<path d="M23008 10373 c7 -3 16 -2 19 1 4 3 -2 6 -13 5 -11 0 -14 -3 -6 -6z"/>
<path d="M23474 10369 c-10 -17 13 -36 27 -22 12 12 4 33 -11 33 -5 0 -12 -5
-16 -11z"/>
<path d="M23975 10370 c-8 -13 4 -32 16 -25 12 8 12 35 0 35 -6 0 -13 -4 -16
-10z"/>
<path d="M24120 10340 c0 -5 5 -10 10 -10 6 0 10 5 10 10 0 6 -4 10 -10 10 -5
0 -10 -4 -10 -10z"/>
<path d="M24998 10373 c7 -3 16 -2 19 1 4 3 -2 6 -13 5 -11 0 -14 -3 -6 -6z"/>
<path d="M25225 10371 c-8 -15 3 -31 21 -31 9 0 14 7 12 17 -4 20 -24 28 -33
14z"/>
<path d="M25700 10340 c0 -5 5 -10 10 -10 6 0 10 5 10 10 0 6 -4 10 -10 10 -5
0 -10 -4 -10 -10z"/>
<path d="M26268 10373 c7 -3 16 -2 19 1 4 3 -2 6 -13 5 -11 0 -14 -3 -6 -6z"/>
<path d="M26420 10340 c0 -5 5 -10 10 -10 6 0 10 5 10 10 0 6 -4 10 -10 10 -5
0 -10 -4 -10 -10z"/>
<path d="M26720 10340 c0 -5 4 -10 9 -10 6 0 13 5 16 10 3 6 -1 10 -9 10 -9 0
-16 -4 -16 -10z"/>
<path d="M25024 10169 c-8 -14 11 -33 25 -25 6 4 11 14 11 22 0 16 -26 19 -36
3z"/>
<path d="M25465 10180 c-3 -5 1 -10 10 -10 9 0 13 5 10 10 -3 6 -8 10 -10 10
-2 0 -7 -4 -10 -10z"/>
<path d="M27392 10163 c5 -25 28 -28 28 -4 0 12 -6 21 -16 21 -9 0 -14 -7 -12
-17z"/>
<path d="M23820 10160 c0 -17 7 -20 42 -20 l42 0 -39 20 c-22 11 -41 20 -42
20 -2 0 -3 -9 -3 -20z"/>
<path d="M25176 10172 c-8 -13 11 -35 23 -28 16 10 14 36 -3 36 -8 0 -17 -4
-20 -8z"/>
<path d="M23205 10180 c-3 -5 1 -10 10 -10 9 0 13 5 10 10 -3 6 -8 10 -10 10
-2 0 -7 -4 -10 -10z"/>
<path d="M23305 10180 c-3 -5 1 -10 10 -10 9 0 13 5 10 10 -3 6 -8 10 -10 10
-2 0 -7 -4 -10 -10z"/>
<path d="M23094 10169 c-10 -17 13 -36 27 -22 12 12 4 33 -11 33 -5 0 -12 -5
-16 -11z"/>
<path d="M23648 10143 c7 -3 16 -2 19 1 4 3 -2 6 -13 5 -11 0 -14 -3 -6 -6z"/>
<path d="M24275 10180 c-3 -5 1 -10 9 -10 9 0 16 5 16 10 0 6 -4 10 -9 10 -6
0 -13 -4 -16 -10z"/>
<path d="M24418 10143 c7 -3 16 -2 19 1 4 3 -2 6 -13 5 -11 0 -14 -3 -6 -6z"/>
<path d="M24818 10143 c7 -3 16 -2 19 1 4 3 -2 6 -13 5 -11 0 -14 -3 -6 -6z"/>
<path d="M26005 10180 c-3 -5 1 -10 9 -10 9 0 16 5 16 10 0 6 -4 10 -9 10 -6
0 -13 -4 -16 -10z"/>
<path d="M26175 10180 c-3 -5 1 -10 10 -10 9 0 13 5 10 10 -3 6 -8 10 -10 10
-2 0 -7 -4 -10 -10z"/>
<path d="M26480 10180 c0 -5 7 -10 16 -10 8 0 12 5 9 10 -3 6 -10 10 -16 10
-5 0 -9 -4 -9 -10z"/>
<path d="M26985 10180 c-3 -5 1 -10 9 -10 9 0 16 5 16 10 0 6 -4 10 -9 10 -6
0 -13 -4 -16 -10z"/>
<path d="M26796 10172 c-8 -13 11 -35 23 -28 16 10 14 36 -3 36 -8 0 -17 -4
-20 -8z"/>
<path d="M29912 10014 c-44 -30 -18 -114 35 -114 22 0 53 39 53 65 0 26 -31
65 -53 65 -7 0 -23 -7 -35 -16z"/>
<path d="M30546 10014 c-3 -9 -6 -31 -6 -49 0 -42 9 -65 25 -65 17 0 25 23 25
69 0 50 -30 81 -44 45z"/>
<path d="M24503 9974 c-8 -21 13 -42 28 -27 13 13 5 43 -11 43 -6 0 -13 -7
-17 -16z"/>
<path d="M26673 9974 c-8 -21 13 -42 28 -27 13 13 5 43 -11 43 -6 0 -13 -7
-17 -16z"/>
<path d="M23260 9950 c0 -5 5 -10 10 -10 6 0 10 5 10 10 0 6 -4 10 -10 10 -5
0 -10 -4 -10 -10z"/>
<path d="M23620 9950 c0 -5 5 -10 10 -10 6 0 10 5 10 10 0 6 -4 10 -10 10 -5
0 -10 -4 -10 -10z"/>
<path d="M23805 9950 c-3 -5 1 -10 9 -10 9 0 16 5 16 10 0 6 -4 10 -9 10 -6 0
-13 -4 -16 -10z"/>
<path d="M24020 9980 c-12 -7 -12 -12 -2 -22 9 -9 15 -9 24 0 16 16 -2 34 -22
22z"/>
<path d="M24174 9975 c-9 -23 10 -40 25 -22 9 11 8 17 -4 27 -12 10 -16 9 -21
-5z"/>
<path d="M24280 9980 c0 -5 7 -10 16 -10 8 0 12 5 9 10 -3 6 -10 10 -16 10 -5
0 -9 -4 -9 -10z"/>
<path d="M24840 9950 c0 -5 5 -10 10 -10 6 0 10 5 10 10 0 6 -4 10 -10 10 -5
0 -10 -4 -10 -10z"/>
<path d="M25140 9980 c0 -5 7 -10 15 -10 8 0 15 5 15 10 0 6 -7 10 -15 10 -8
0 -15 -4 -15 -10z"/>
<path d="M25370 9950 c0 -5 5 -10 10 -10 6 0 10 5 10 10 0 6 -4 10 -10 10 -5
0 -10 -4 -10 -10z"/>
<path d="M25535 9980 c-3 -5 1 -10 9 -10 9 0 16 5 16 10 0 6 -4 10 -9 10 -6 0
-13 -4 -16 -10z"/>
<path d="M25791 9977 c-9 -11 -8 -17 4 -27 12 -10 16 -9 21 5 9 23 -10 40 -25
22z"/>
<path d="M26350 9950 c0 -5 5 -10 10 -10 6 0 10 5 10 10 0 6 -4 10 -10 10 -5
0 -10 -4 -10 -10z"/>
<path d="M27094 9976 c-4 -10 -2 -22 4 -28 8 -8 13 -7 18 6 4 10 2 22 -4 28
-8 8 -13 7 -18 -6z"/>
<path d="M27370 9950 c0 -5 5 -10 10 -10 6 0 10 5 10 10 0 6 -4 10 -10 10 -5
0 -10 -4 -10 -10z"/>
<path d="M22950 9780 c0 -5 7 -10 16 -10 8 0 12 5 9 10 -3 6 -10 10 -16 10 -5
0 -9 -4 -9 -10z"/>
<path d="M23051 9777 c-9 -11 -8 -17 4 -27 12 -10 16 -9 21 5 9 23 -10 40 -25
22z"/>
<path d="M23554 9776 c-4 -10 -2 -22 4 -28 8 -8 13 -7 18 6 4 10 2 22 -4 28
-8 8 -13 7 -18 -6z"/>
<path d="M23654 9776 c-4 -10 -2 -22 4 -28 8 -8 13 -7 18 6 4 10 2 22 -4 28
-8 8 -13 7 -18 -6z"/>
<path d="M24840 9800 c0 -5 7 -10 15 -10 8 0 15 5 15 10 0 6 -7 10 -15 10 -8
0 -15 -4 -15 -10z"/>
<path d="M22685 9750 c-3 -5 1 -10 9 -10 9 0 16 5 16 10 0 6 -4 10 -9 10 -6 0
-13 -4 -16 -10z"/>
<path d="M24320 9780 c0 -5 7 -10 16 -10 8 0 12 5 9 10 -3 6 -10 10 -16 10 -5
0 -9 -4 -9 -10z"/>
<path d="M24640 9780 c0 -5 7 -10 15 -10 8 0 15 5 15 10 0 6 -7 10 -15 10 -8
0 -15 -4 -15 -10z"/>
<path d="M25260 9780 c0 -5 7 -10 16 -10 8 0 12 5 9 10 -3 6 -10 10 -16 10 -5
0 -9 -4 -9 -10z"/>
<path d="M26384 9775 c-9 -23 10 -40 25 -22 9 11 8 17 -4 27 -12 10 -16 9 -21
-5z"/>
<path d="M26860 9750 c0 -5 5 -10 10 -10 6 0 10 5 10 10 0 6 -4 10 -10 10 -5
0 -10 -4 -10 -10z"/>
<path d="M27050 9750 c0 -5 5 -10 10 -10 6 0 10 5 10 10 0 6 -4 10 -10 10 -5
0 -10 -4 -10 -10z"/>
<path d="M27261 9776 c-12 -14 -5 -26 16 -26 15 0 18 26 4 34 -5 3 -14 0 -20
-8z"/>
<path d="M22947 9584 c-14 -14 -7 -35 11 -32 9 2 17 10 17 17 0 16 -18 25 -28
15z"/>
<path d="M23148 9583 c7 -3 16 -2 19 1 4 3 -2 6 -13 5 -11 0 -14 -3 -6 -6z"/>
<path d="M23914 9579 c-10 -17 13 -36 27 -22 12 12 4 33 -11 33 -5 0 -12 -5
-16 -11z"/>
<path d="M24377 9583 c-13 -12 -7 -33 8 -33 8 0 15 9 15 20 0 20 -11 26 -23
13z"/>
<path d="M24587 9583 c-13 -12 -7 -33 8 -33 8 0 15 9 15 20 0 20 -11 26 -23
13z"/>
<path d="M25696 9575 c-3 -9 1 -18 10 -22 19 -7 28 2 21 22 -8 19 -23 19 -31
0z"/>
<path d="M25857 9583 c-13 -12 -7 -33 8 -33 8 0 15 9 15 20 0 20 -11 26 -23
13z"/>
<path d="M26354 9579 c-10 -17 13 -36 27 -22 12 12 4 33 -11 33 -5 0 -12 -5
-16 -11z"/>
<path d="M26468 9583 c7 -3 16 -2 19 1 4 3 -2 6 -13 5 -11 0 -14 -3 -6 -6z"/>
<path d="M26556 9575 c-3 -9 1 -18 10 -22 19 -7 28 2 21 22 -8 19 -23 19 -31
0z"/>
<path d="M26714 9579 c-10 -17 13 -36 27 -22 12 12 4 33 -11 33 -5 0 -12 -5
-16 -11z"/>
<path d="M24068 9583 c7 -3 16 -2 19 1 4 3 -2 6 -13 5 -11 0 -14 -3 -6 -6z"/>
<path d="M22710 9550 c0 -5 5 -10 10 -10 6 0 10 5 10 10 0 6 -4 10 -10 10 -5
0 -10 -4 -10 -10z"/>
<path d="M23578 9583 c7 -3 16 -2 19 1 4 3 -2 6 -13 5 -11 0 -14 -3 -6 -6z"/>
<path d="M25235 9581 c-8 -15 3 -31 21 -31 9 0 14 7 12 17 -4 20 -24 28 -33
14z"/>
<path d="M25490 9550 c0 -5 5 -10 10 -10 6 0 10 5 10 10 0 6 -4 10 -10 10 -5
0 -10 -4 -10 -10z"/>
<path d="M25968 9583 c7 -3 16 -2 19 1 4 3 -2 6 -13 5 -11 0 -14 -3 -6 -6z"/>
<path d="M26958 9583 c7 -3 16 -2 19 1 4 3 -2 6 -13 5 -11 0 -14 -3 -6 -6z"/>
<path d="M27154 9579 c-10 -17 13 -36 27 -22 12 12 4 33 -11 33 -5 0 -12 -5
-16 -11z"/>
<path d="M27268 9583 c7 -3 16 -2 19 1 4 3 -2 6 -13 5 -11 0 -14 -3 -6 -6z"/>
<path d="M25960 8916 l0 -66 34 0 c42 0 66 22 66 59 0 39 -20 61 -63 68 l-37
6 0 -67z"/>
<path d="M26937 8973 c-11 -10 -8 -51 4 -58 15 -10 56 3 62 20 11 28 -45 60
-66 38z"/>
</g>
</svg>
